<svg width="15" height="12" viewBox="0 0 15 12" fill="none" xmlns="http://www.w3.org/2000/svg">
<path d="M4.09895 11.2549C3.03895 11.2549 2.23895 10.8749 1.69895 10.1149C1.17895 9.33491 0.918945 8.25491 0.918945 6.87491C0.918945 5.37491 1.29895 4.05491 2.05895 2.91491C2.81895 1.75491 3.99895 0.794912 5.59895 0.0349121L6.67895 2.25491C5.71895 2.67491 4.99895 3.19491 4.51895 3.81491C4.03895 4.41491 3.79895 5.16491 3.79895 6.06491C3.85895 6.04491 3.95895 6.03491 4.09895 6.03491C4.81895 6.03491 5.42895 6.25491 5.92895 6.69491C6.42895 7.13491 6.67895 7.73491 6.67895 8.49491C6.67895 9.33491 6.43895 10.0049 5.95895 10.5049C5.47895 11.0049 4.85895 11.2549 4.09895 11.2549ZM11.8989 11.2549C10.8389 11.2549 10.0389 10.8749 9.49895 10.1149C8.97894 9.33491 8.71895 8.25491 8.71895 6.87491C8.71895 5.37491 9.09895 4.05491 9.85895 2.91491C10.6189 1.75491 11.7989 0.794912 13.3989 0.0349121L14.4789 2.25491C13.5189 2.67491 12.7989 3.19491 12.3189 3.81491C11.8389 4.41491 11.5989 5.16491 11.5989 6.06491C11.6589 6.04491 11.7589 6.03491 11.8989 6.03491C12.6189 6.03491 13.2289 6.25491 13.7289 6.69491C14.2289 7.13491 14.4789 7.73491 14.4789 8.49491C14.4789 9.33491 14.2389 10.0049 13.7589 10.5049C13.2789 11.0049 12.6589 11.2549 11.8989 11.2549Z" fill="#354793"/>
</svg>
