<svg width="84" height="90" viewBox="0 0 84 90" fill="none" xmlns="http://www.w3.org/2000/svg">
<mask id="mask0" mask-type="alpha" maskUnits="userSpaceOnUse" x="24" y="0" width="60" height="80">
<path d="M82.5 11.6408V76C82.5 77.3807 81.3807 78.5 80 78.5H28C26.6193 78.5 25.5 77.3807 25.5 76V4C25.5 2.61929 26.6193 1.5 28 1.5H71.3889V6.14085C71.3889 9.17841 73.8513 11.6408 76.8889 11.6408H82.5ZM80.1314 8.64085H76.8889C75.5082 8.64085 74.3889 7.52156 74.3889 6.14085V3.39983L77.4333 6.17835L80.1314 8.64085Z" fill="#354793" stroke="black" stroke-width="3"/>
</mask>
<g mask="url(#mask0)">
<ellipse rx="29.0563" ry="28.3565" transform="matrix(0.876269 0.481823 -0.5184 0.855138 61.1615 90.2487)" fill="#FFE01B"/>
<path fill-rule="evenodd" clip-rule="evenodd" d="M62.4 0H28C25.7909 0 24 1.79086 24 4V76C24 78.2091 25.7909 80 28 80H80C82.2091 80 84 78.2091 84 76V20.5714L62.4 0ZM78.075 19.0714L63.9 5.57143V16.5714C63.9 17.9521 65.0193 19.0714 66.4 19.0714H78.075ZM60.9 3H28C27.4477 3 27 3.44772 27 4V76C27 76.5523 27.4477 77 28 77H80C80.5523 77 81 76.5523 81 76V22.0714H66.4C63.3624 22.0714 60.9 19.609 60.9 16.5714V3Z" fill="#354793"/>
</g>
<mask id="mask1" mask-type="alpha" maskUnits="userSpaceOnUse" x="0" y="10" width="60" height="80">
<path d="M58.5 21.6408V86C58.5 87.3807 57.3807 88.5 56 88.5H4C2.61929 88.5 1.5 87.3807 1.5 86V14C1.5 12.6193 2.61929 11.5 4 11.5H47.3889V16.1408C47.3889 19.1784 49.8513 21.6408 52.8889 21.6408H58.5ZM56.1314 18.6408H52.8889C51.5082 18.6408 50.3889 17.5216 50.3889 16.1408V13.3998L53.4333 16.1784L56.1314 18.6408Z" fill="#F6F6F4" stroke="black" stroke-width="3"/>
</mask>
<g mask="url(#mask1)">
<path d="M1.5 14C1.5 12.6193 2.61929 11.5 4 11.5H37.8L48.1655 21.3719L58.5 31.2143V86C58.5 87.3807 57.3807 88.5 56 88.5H4C2.61929 88.5 1.5 87.3807 1.5 86V14Z" fill="#F6F6F4" stroke="#354793" stroke-width="3"/>
<circle cx="30" cy="54" r="19" fill="#FFE01B"/>
<path d="M32 35V53C32 54.1046 31.1046 55 30 55H11" stroke="#F6F6F4" stroke-width="2"/>
</g>
</svg>
