<svg width="75" height="80" viewBox="0 0 75 80" fill="none" xmlns="http://www.w3.org/2000/svg">
<mask id="mask0" mask-type="alpha" maskUnits="userSpaceOnUse" x="21" y="0" width="54" height="72">
<path d="M73.1663 10.5141V67.1111C73.1663 68.4918 72.0471 69.6111 70.6663 69.6111H25.333C23.9523 69.6111 22.833 68.4918 22.833 67.1111V4C22.833 2.61929 23.9523 1.5 25.333 1.5H63.2898V5.01408C63.2898 8.05165 65.7522 10.5141 68.7898 10.5141H73.1663ZM70.7977 7.51409H68.7898C67.4091 7.51409 66.2898 6.3948 66.2898 5.01408V3.39983L68.7169 5.61497L70.7977 7.51409Z" fill="#354793" stroke="black" stroke-width="3"/>
</mask>
<g mask="url(#mask0)">
<ellipse rx="25.8278" ry="25.2058" transform="matrix(0.876269 0.481823 -0.5184 0.855138 54.3662 80.221)" fill="#FFE01B"/>
<path d="M73.1663 19.7857V67.1111C73.1663 68.4918 72.0471 69.6111 70.6663 69.6111H25.333C23.9523 69.6111 22.833 68.4918 22.833 67.1111V4C22.833 2.61929 23.9523 1.5 25.333 1.5H53.9663V14.2857C53.9663 17.3233 56.4288 19.7857 59.4663 19.7857H73.1663ZM70.9163 16.7857H59.4663C58.0856 16.7857 56.9663 15.6664 56.9663 14.2857V3.5L64.0319 10.2291L70.9163 16.7857Z" stroke="#354793" stroke-width="3"/>
</g>
<mask id="mask1" mask-type="alpha" maskUnits="userSpaceOnUse" x="0" y="8" width="54" height="72">
<path d="M51.8333 19.4028V75.9998C51.8333 77.3805 50.7141 78.4998 49.3333 78.4998H4C2.61929 78.4998 1.5 77.3805 1.5 75.9998V12.8887C1.5 11.508 2.61929 10.3887 4 10.3887H41.9568V13.9028C41.9568 16.9403 44.4192 19.4028 47.4568 19.4028H51.8333ZM49.4647 16.4028H47.4568C46.0761 16.4028 44.9568 15.2835 44.9568 13.9028V12.2885L47.3839 14.5036L49.4647 16.4028Z" fill="#F6F6F4" stroke="black" stroke-width="3"/>
</mask>
<g mask="url(#mask1)">
<path d="M0 12.4442C0 10.4805 1.59188 8.88867 3.55556 8.88867H34.1333L43.7333 18.0315L53.3333 27.1744V76.4442C53.3333 78.4079 51.7415 79.9998 49.7778 79.9998H3.55556C1.59188 79.9998 0 78.4079 0 76.4442V12.4442Z" fill="#F6F6F4"/>
<path fill-rule="evenodd" clip-rule="evenodd" d="M34.1333 8.88867H3.55556C1.59188 8.88867 0 10.4805 0 12.4442V76.4442C0 78.4079 1.59188 79.9998 3.55556 79.9998H49.7778C51.7415 79.9998 53.3333 78.4079 53.3333 76.4442V27.1744L34.1333 8.88867ZM48.0667 25.8411L35.4667 13.8411V23.6188C35.4667 24.8461 36.4616 25.8411 37.6889 25.8411H48.0667ZM32.8 11.5553H3.55556C3.06464 11.5553 2.66667 11.9533 2.66667 12.4442V76.4442C2.66667 76.9352 3.06464 77.3331 3.55556 77.3331H49.7778C50.2687 77.3331 50.6667 76.9352 50.6667 76.4442V28.5077H37.6889C34.9888 28.5077 32.8 26.3189 32.8 23.6188V11.5553Z" fill="#354793"/>
<circle cx="26.6662" cy="48.0002" r="16.8889" fill="#FFE01B"/>
<path d="M28.444 31.1113V46.8891C28.444 47.9937 27.5486 48.8891 26.444 48.8891H9.77734" stroke="#F6F6F4" stroke-width="2"/>
</g>
</svg>
