<svg width="75" height="80" viewBox="0 0 75 80" fill="none" xmlns="http://www.w3.org/2000/svg">
<mask id="mask0" mask-type="alpha" maskUnits="userSpaceOnUse" x="21" y="0" width="54" height="72">
<path d="M21.333 4C21.333 1.79086 23.1239 0 25.333 0H64.7898L69.7281 4.50704L74.6663 9.01409V67.1111C74.6663 69.3203 72.8755 71.1111 70.6663 71.1111H25.333C23.1239 71.1111 21.333 69.3203 21.333 67.1111V4Z" fill="#354793"/>
</mask>
<g mask="url(#mask0)">
<ellipse rx="25.8278" ry="25.2058" transform="matrix(0.876269 0.481823 -0.5184 0.855138 54.3662 80.221)" fill="#FFE01B"/>
<path fill-rule="evenodd" clip-rule="evenodd" d="M55.4663 0H24.8886C22.9249 0 21.333 1.59188 21.333 3.55556V67.5556C21.333 69.5192 22.9249 71.1111 24.8886 71.1111H71.1108C73.0745 71.1111 74.6663 69.5192 74.6663 67.5556V18.2857L55.4663 0ZM69.3997 16.9524L56.7997 4.95238V14.7302C56.7997 15.9575 57.7946 16.9524 59.0219 16.9524H69.3997ZM54.133 2.66667H24.8886C24.3976 2.66667 23.9997 3.06464 23.9997 3.55556V67.5556C23.9997 68.0465 24.3976 68.4444 24.8886 68.4444H71.1108C71.6017 68.4444 71.9997 68.0465 71.9997 67.5556V19.6191H59.0219C56.3218 19.6191 54.133 17.4302 54.133 14.7302V2.66667Z" fill="#354793"/>
</g>
<mask id="mask1" mask-type="alpha" maskUnits="userSpaceOnUse" x="0" y="8" width="54" height="72">
<path d="M51.8333 19.4028V75.9998C51.8333 77.3805 50.7141 78.4998 49.3333 78.4998H4C2.61929 78.4998 1.5 77.3805 1.5 75.9998V12.8887C1.5 11.508 2.61929 10.3887 4 10.3887H41.9568V13.9028C41.9568 16.9403 44.4192 19.4028 47.4568 19.4028H51.8333ZM49.4647 16.4028H47.4568C46.0761 16.4028 44.9568 15.2835 44.9568 13.9028V12.2885L47.3839 14.5036L49.4647 16.4028Z" fill="#F6F6F4" stroke="black" stroke-width="3"/>
</mask>
<g mask="url(#mask1)">
<path d="M51.8333 28.6744V75.9998C51.8333 77.3805 50.7141 78.4998 49.3333 78.4998H4C2.61929 78.4998 1.5 77.3805 1.5 75.9998V12.8887C1.5 11.508 2.61929 10.3887 4 10.3887H32.6333V23.1744C32.6333 26.212 35.0958 28.6744 38.1333 28.6744H51.8333ZM49.5833 25.6744H38.1333C36.7526 25.6744 35.6333 24.5551 35.6333 23.1744V12.3887L42.6989 19.1177L49.5833 25.6744Z" fill="#F6F6F4" stroke="#354793" stroke-width="3"/>
<circle cx="26.6662" cy="48.0002" r="16.8889" fill="#FFE01B"/>
<path d="M28.444 31.1113V46.8891C28.444 47.9937 27.5486 48.8891 26.444 48.8891H9.77734" stroke="#F6F6F4" stroke-width="2"/>
</g>
</svg>
