<svg width="86" height="80" viewBox="0 0 86 80" fill="none" xmlns="http://www.w3.org/2000/svg">
<mask id="mask0" mask-type="alpha" maskUnits="userSpaceOnUse" x="24" y="0" width="54" height="72">
<path d="M24.333 4C24.333 1.79086 26.1239 0 28.333 0H67.7898L72.7281 4.50704L77.6663 9.01409V67.1111C77.6663 69.3203 75.8755 71.1111 73.6663 71.1111H28.333C26.1239 71.1111 24.333 69.3203 24.333 67.1111V4Z" fill="#354793"/>
</mask>
<g mask="url(#mask0)">
<ellipse rx="25.8278" ry="25.2058" transform="matrix(0.876269 0.481823 -0.5184 0.855138 57.3662 80.221)" fill="#FFE01B"/>
<path fill-rule="evenodd" clip-rule="evenodd" d="M58.4663 0H27.8886C25.9249 0 24.333 1.59188 24.333 3.55556V67.5556C24.333 69.5192 25.9249 71.1111 27.8886 71.1111H74.1108C76.0745 71.1111 77.6663 69.5192 77.6663 67.5556V18.2857L58.4663 0ZM72.3997 16.9524L59.7997 4.95238V14.7302C59.7997 15.9575 60.7946 16.9524 62.0219 16.9524H72.3997ZM57.133 2.66667H27.8886C27.3976 2.66667 26.9997 3.06464 26.9997 3.55556V67.5556C26.9997 68.0465 27.3976 68.4445 27.8886 68.4445H74.1108C74.6017 68.4445 74.9997 68.0465 74.9997 67.5556V19.6191H62.0219C59.3218 19.6191 57.133 17.4302 57.133 14.7302V2.66667Z" fill="#354793"/>
</g>
<mask id="mask1" mask-type="alpha" maskUnits="userSpaceOnUse" x="3" y="8" width="54" height="72">
<path d="M4.5 12.8887C4.5 11.508 5.61929 10.3887 7 10.3887H45.8752L50.3839 14.5036L54.8333 18.5646V75.9998C54.8333 77.3805 53.7141 78.4998 52.3333 78.4998H7C5.61929 78.4998 4.5 77.3805 4.5 75.9998V12.8887Z" fill="#F6F6F4" stroke="black" stroke-width="3"/>
</mask>
<g mask="url(#mask1)">
<path d="M4.5 12.8887C4.5 11.508 5.61929 10.3887 7 10.3887H36.5333L54.8333 27.8172V75.9998C54.8333 77.3805 53.7141 78.4998 52.3333 78.4998H7C5.61929 78.4998 4.5 77.3805 4.5 75.9998V12.8887Z" fill="#F6F6F4" stroke="#354793" stroke-width="3"/>
<circle cx="29.6662" cy="48.0002" r="16.8889" fill="#FFE01B"/>
<path d="M31.444 31.1113V46.8891C31.444 47.9937 30.5486 48.8891 29.444 48.8891H12.7773" stroke="#F6F6F4" stroke-width="2"/>
</g>
</svg>
