<svg width="87" height="65" viewBox="0 0 87 65" fill="none" xmlns="http://www.w3.org/2000/svg">
<mask id="mask0" mask-type="alpha" maskUnits="userSpaceOnUse" x="0" y="0" width="87" height="65">
<path d="M82.667 1.5C84.0477 1.5 85.167 2.61929 85.167 4L85.167 41.6L85.167 61C85.167 62.3807 84.0477 63.5 82.667 63.5L64.3813 63.5L4.00031 63.5C2.6196 63.5 1.50031 62.3807 1.50031 61L1.50031 3.99999C1.50031 2.61928 2.6196 1.5 4.00031 1.5L82.667 1.5Z" fill="white" stroke="#354793" stroke-width="3"/>
</mask>
<g mask="url(#mask0)">
<ellipse rx="31.4777" ry="30.7195" transform="matrix(-0.707107 -0.707107 0.736339 -0.676613 74.1285 46.2931)" fill="#FFE01B"/>
<path d="M82.667 1.5C84.0477 1.5 85.167 2.61929 85.167 4L85.167 13L85.167 41.6L85.167 61C85.167 62.3807 84.0477 63.5 82.667 63.5L64.3813 63.5L4.00031 63.5C2.6196 63.5 1.50031 62.3807 1.50031 61L1.50031 13L1.50031 4C1.50031 2.61929 2.61961 1.5 4.00031 1.5L82.667 1.5Z" stroke="#354793" stroke-width="3"/>
<path d="M34.1729 42.1649C35.1142 42.5381 36.1352 41.8445 36.1352 40.8319C36.1352 40.2339 35.7641 39.6987 35.204 39.489L28.4478 36.9604L28.4471 36.9601L24.0963 35.3165L28.4471 33.6729L28.4478 33.6726L35.204 31.144C35.7641 30.9343 36.1352 30.3991 36.1352 29.8011C36.1352 28.7885 35.1142 28.095 34.1729 28.4682L21.5996 33.4532C20.8356 33.7561 20.334 34.4947 20.334 35.3165C20.334 36.1383 20.8356 36.8769 21.5996 37.1798L34.1729 42.1649ZM37.6183 51.6896C37.3703 52.5078 37.9826 53.3332 38.8375 53.3332C39.3988 53.3332 39.8939 52.9659 40.0568 52.4287L48.9591 23.0601C49.2071 22.2419 48.5948 21.4165 47.7399 21.4165C47.1786 21.4165 46.6835 21.7838 46.5207 22.3209L37.6183 51.6896ZM50.5327 40.8319C50.5327 41.8445 51.5538 42.5381 52.4951 42.1649L65.0684 37.1798C65.8323 36.8769 66.334 36.1383 66.334 35.3165C66.334 34.4947 65.8323 33.7561 65.0684 33.4532L52.4951 28.4682C51.5538 28.095 50.5327 28.7885 50.5327 29.8011C50.5327 30.3991 50.9039 30.9343 51.464 31.144L58.2202 33.6726L58.2209 33.6729L62.5717 35.3165L58.2209 36.9601L58.2202 36.9604L51.464 39.489C50.9039 39.6987 50.5327 40.2339 50.5327 40.8319Z" fill="#354793" stroke="#354793" stroke-width="0.5"/>
<circle cx="8.66667" cy="7.58317" r="1.5" fill="#354793" stroke="#354793" stroke-width="1.33333"/>
<circle cx="15.1667" cy="7.58317" r="1.5" fill="#354793" stroke="#354793" stroke-width="1.33333"/>
<circle cx="21.6667" cy="7.58317" r="1.5" fill="#354793" stroke="#354793" stroke-width="1.33333"/>
</g>
</svg>
