<svg width="87" height="65" viewBox="0 0 87 65" fill="none" xmlns="http://www.w3.org/2000/svg">
<mask id="mask0" mask-type="alpha" maskUnits="userSpaceOnUse" x="0" y="0" width="87" height="65">
<path d="M1.50031 61L1.50031 3.99999C1.50031 2.61928 2.6196 1.5 4.00031 1.5L82.667 1.5C84.0477 1.5 85.167 2.61929 85.167 4L85.167 41.6L85.167 61C85.167 62.3807 84.0477 63.5 82.667 63.5L64.3813 63.5L4.00031 63.5C2.6196 63.5 1.50031 62.3807 1.50031 61Z" fill="white" stroke="#354793" stroke-width="3"/>
</mask>
<g mask="url(#mask0)">
<ellipse rx="31.4777" ry="30.7195" transform="matrix(-0.707107 -0.707107 0.736339 -0.676613 74.1285 46.2931)" fill="#FFE01B"/>
<path fill-rule="evenodd" clip-rule="evenodd" d="M83.667 14.5L3.00031 14.5L3.00031 61C3.00031 61.5523 3.44803 62 4.00031 62L82.667 62C83.2193 62 83.667 61.5523 83.667 61L83.667 14.5ZM83.667 11.5L3.00031 11.5L3.00031 4C3.00031 3.44771 3.44803 3 4.00031 3L82.667 3C83.2193 3 83.667 3.44771 83.667 4L83.667 11.5ZM86.667 4C86.667 1.79086 84.8761 -7.82809e-08 82.667 -1.74845e-07L4.00031 -3.61348e-06C1.79118 -3.71004e-06 0.000312727 1.79086 0.00031263 4L0.000310139 61C0.000310042 63.2091 1.79117 65 4.00031 65L82.667 65C84.8761 65 86.667 63.2091 86.667 61L86.667 4Z" fill="#354793"/>
<path d="M35.8852 40.8319C35.8852 41.6679 35.0422 42.2406 34.265 41.9325L21.6918 36.9474C21.0231 36.6823 20.584 36.0358 20.584 35.3165C20.584 34.5972 21.0231 33.9507 21.6918 33.6856L34.265 28.7006C35.0422 28.3924 35.8852 28.9651 35.8852 29.8011C35.8852 30.2948 35.5788 30.7368 35.1163 30.9098L28.3594 33.4387L23.6476 35.2188C23.6069 35.2341 23.58 35.273 23.58 35.3165C23.58 35.36 23.6069 35.3989 23.6476 35.4143L28.3594 37.1943L35.1163 39.7232C35.5788 39.8963 35.8852 40.3382 35.8852 40.8319Z" fill="#354793"/>
<path d="M38.8375 53.0832C38.1504 53.0832 37.6582 52.4197 37.8576 51.7621L46.7599 22.3935C46.8908 21.9617 47.2888 21.6665 47.7399 21.6665C48.4271 21.6665 48.9192 22.3299 48.7199 22.9876L39.8175 52.3562C39.6866 52.7879 39.2887 53.0832 38.8375 53.0832Z" fill="#354793"/>
<path d="M52.4029 41.9325C51.6258 42.2406 50.7827 41.6679 50.7827 40.8319C50.7827 40.3382 51.0892 39.8963 51.5516 39.7232L58.3085 37.1943L63.0204 35.4143C63.061 35.3989 63.0879 35.36 63.0879 35.3165C63.0879 35.273 63.061 35.2341 63.0204 35.2188L58.3085 33.4387L51.5516 30.9098C51.0892 30.7368 50.7827 30.2948 50.7827 29.8011C50.7827 28.9651 51.6258 28.3924 52.4029 28.7006L64.9762 33.6856C65.6449 33.9507 66.084 34.5972 66.084 35.3165C66.084 36.0358 65.6449 36.6823 64.9762 36.9474L52.4029 41.9325Z" fill="#354793"/>
<path fill-rule="evenodd" clip-rule="evenodd" d="M34.0808 42.3973L21.5075 37.4122C20.6482 37.0715 20.084 36.2408 20.084 35.3165C20.084 34.3922 20.6482 33.5615 21.5075 33.2208L34.0807 28.2358C35.1861 27.7975 36.3852 28.612 36.3852 29.8011C36.3852 30.5034 35.9494 31.1319 35.2916 31.3781L28.5361 33.9065L28.5347 33.907L24.8037 35.3165L28.5347 36.726L28.5361 36.7265L35.2916 39.2549C35.9494 39.5011 36.3852 40.1296 36.3852 40.8319C36.3852 42.021 35.1861 42.8355 34.0808 42.3973ZM28.3594 37.1943L35.1163 39.7232C35.5788 39.8963 35.8852 40.3382 35.8852 40.8319C35.8852 41.6679 35.0422 42.2406 34.265 41.9325L21.6918 36.9474C21.0231 36.6823 20.584 36.0358 20.584 35.3165C20.584 34.5972 21.0231 33.9507 21.6918 33.6856L34.265 28.7006C35.0422 28.3924 35.8852 28.9651 35.8852 29.8011C35.8852 30.2948 35.5788 30.7368 35.1163 30.9098L28.3594 33.4387L23.6476 35.2188C23.6069 35.2341 23.58 35.273 23.58 35.3165C23.58 35.36 23.6069 35.3989 23.6476 35.4143L28.3594 37.1943ZM37.3791 51.6171L46.2814 22.2484C46.4762 21.6059 47.0685 21.1665 47.7399 21.1665C48.7626 21.1665 49.495 22.1539 49.1984 23.1326L40.296 52.5013C40.1012 53.1438 39.5089 53.5832 38.8375 53.5832C37.8148 53.5832 37.0824 52.5958 37.3791 51.6171ZM58.1318 36.7265L51.3764 39.2549C50.7186 39.5011 50.2827 40.1296 50.2827 40.8319C50.2827 42.021 51.4818 42.8355 52.5872 42.3973L65.1605 37.4122C66.0198 37.0715 66.584 36.2408 66.584 35.3165C66.584 34.3922 66.0198 33.5615 65.1605 33.2208L52.5872 28.2358C51.4818 27.7975 50.2827 28.612 50.2827 29.8011C50.2827 30.5034 50.7186 31.1319 51.3764 31.3781L58.1318 33.9065L61.8643 35.3165L58.1333 36.726L58.1318 36.7265ZM58.3085 33.4387L51.5516 30.9098C51.0892 30.7368 50.7827 30.2948 50.7827 29.8011C50.7827 28.9651 51.6258 28.3924 52.4029 28.7006L64.9762 33.6856C65.6449 33.9507 66.084 34.5972 66.084 35.3165C66.084 36.0358 65.6449 36.6823 64.9762 36.9474L52.4029 41.9325C51.6258 42.2406 50.7827 41.6679 50.7827 40.8319C50.7827 40.3382 51.0892 39.8963 51.5516 39.7232L58.3085 37.1943L63.0204 35.4143C63.061 35.3989 63.0879 35.36 63.0879 35.3165C63.0879 35.273 63.061 35.2341 63.0204 35.2188L58.3085 33.4387ZM38.8375 53.0832C38.1504 53.0832 37.6582 52.4197 37.8576 51.7621L46.7599 22.3935C46.8908 21.9617 47.2888 21.6665 47.7399 21.6665C48.4271 21.6665 48.9192 22.3299 48.7199 22.9876L39.8175 52.3562C39.6866 52.7879 39.2887 53.0832 38.8375 53.0832Z" fill="#354793"/>
<path d="M10.8333 7.58317C10.8333 8.77979 9.86328 9.74984 8.66667 9.74984C7.47005 9.74984 6.5 8.77979 6.5 7.58317C6.5 6.38655 7.47005 5.4165 8.66667 5.4165C9.86328 5.4165 10.8333 6.38655 10.8333 7.58317Z" fill="#354793"/>
<path fill-rule="evenodd" clip-rule="evenodd" d="M8.66667 6.74984C8.20643 6.74984 7.83333 7.12293 7.83333 7.58317C7.83333 8.04341 8.20643 8.4165 8.66667 8.4165C9.1269 8.4165 9.5 8.04341 9.5 7.58317C9.5 7.12293 9.1269 6.74984 8.66667 6.74984ZM8.66667 9.74984C9.86328 9.74984 10.8333 8.77979 10.8333 7.58317C10.8333 6.38655 9.86328 5.4165 8.66667 5.4165C7.47005 5.4165 6.5 6.38655 6.5 7.58317C6.5 8.77979 7.47005 9.74984 8.66667 9.74984Z" fill="#354793"/>
<path d="M17.3333 7.58317C17.3333 8.77979 16.3633 9.74984 15.1667 9.74984C13.97 9.74984 13 8.77979 13 7.58317C13 6.38655 13.97 5.4165 15.1667 5.4165C16.3633 5.4165 17.3333 6.38655 17.3333 7.58317Z" fill="#354793"/>
<path fill-rule="evenodd" clip-rule="evenodd" d="M15.1667 6.74984C14.7064 6.74984 14.3333 7.12293 14.3333 7.58317C14.3333 8.04341 14.7064 8.4165 15.1667 8.4165C15.6269 8.4165 16 8.04341 16 7.58317C16 7.12293 15.6269 6.74984 15.1667 6.74984ZM15.1667 9.74984C16.3633 9.74984 17.3333 8.77979 17.3333 7.58317C17.3333 6.38655 16.3633 5.4165 15.1667 5.4165C13.97 5.4165 13 6.38655 13 7.58317C13 8.77979 13.97 9.74984 15.1667 9.74984Z" fill="#354793"/>
<path d="M23.8333 7.58317C23.8333 8.77979 22.8633 9.74984 21.6667 9.74984C20.47 9.74984 19.5 8.77979 19.5 7.58317C19.5 6.38655 20.47 5.4165 21.6667 5.4165C22.8633 5.4165 23.8333 6.38655 23.8333 7.58317Z" fill="#354793"/>
<path fill-rule="evenodd" clip-rule="evenodd" d="M21.6667 6.74984C21.2064 6.74984 20.8333 7.12293 20.8333 7.58317C20.8333 8.04341 21.2064 8.4165 21.6667 8.4165C22.1269 8.4165 22.5 8.04341 22.5 7.58317C22.5 7.12293 22.1269 6.74984 21.6667 6.74984ZM21.6667 9.74984C22.8633 9.74984 23.8333 8.77979 23.8333 7.58317C23.8333 6.38655 22.8633 5.4165 21.6667 5.4165C20.47 5.4165 19.5 6.38655 19.5 7.58317C19.5 8.77979 20.47 9.74984 21.6667 9.74984Z" fill="#354793"/>
</g>
</svg>
