<svg width="88" height="80" viewBox="0 0 88 80" fill="none" xmlns="http://www.w3.org/2000/svg">
<rect width="88" height="80" fill="white"/>
<mask id="mask0" mask-type="alpha" maskUnits="userSpaceOnUse" x="1" y="7" width="87" height="65">
<path d="M2.83332 68L2.83332 11C2.83332 9.61928 3.95261 8.5 5.33332 8.5L84 8.5C85.3807 8.5 86.5 9.61929 86.5 11L86.5 48.6L86.5 68C86.5 69.3807 85.3807 70.5 84 70.5L65.7143 70.5L5.33332 70.5C3.9526 70.5 2.83332 69.3807 2.83332 68Z" fill="white" stroke="#354793" stroke-width="3"/>
</mask>
<g mask="url(#mask0)">
<ellipse rx="31.4777" ry="30.7195" transform="matrix(-0.707107 -0.707107 0.736339 -0.676613 75.4615 53.2931)" fill="#FFE01B"/>
<path fill-rule="evenodd" clip-rule="evenodd" d="M85 21.5L4.33332 21.5L4.33332 68C4.33332 68.5523 4.78103 69 5.33332 69L84 69C84.5523 69 85 68.5523 85 68L85 21.5ZM85 18.5L4.33332 18.5L4.33332 11C4.33332 10.4477 4.78104 10 5.33332 10L84 10C84.5523 10 85 10.4477 85 11L85 18.5ZM88 11C88 8.79086 86.2091 7 84 7L5.33332 7C3.12418 7 1.33332 8.79086 1.33332 11L1.33332 68C1.33332 70.2091 3.12418 72 5.33332 72L84 72C86.2091 72 88 70.2091 88 68L88 11Z" fill="#354793"/>
<path d="M37.2182 47.8319C37.2182 48.6679 36.3752 49.2406 35.598 48.9325L23.0248 43.9474C22.3561 43.6823 21.917 43.0358 21.917 42.3165C21.917 41.5972 22.3561 40.9507 23.0248 40.6856L35.598 35.7006C36.3752 35.3924 37.2182 35.9651 37.2182 36.8011C37.2182 37.2948 36.9118 37.7368 36.4494 37.9098L29.6925 40.4387L24.9806 42.2188C24.9399 42.2341 24.913 42.273 24.913 42.3165C24.913 42.36 24.9399 42.3989 24.9806 42.4143L29.6925 44.1943L36.4494 46.7232C36.9118 46.8963 37.2182 47.3382 37.2182 47.8319Z" fill="#354793"/>
<path d="M40.1705 60.0832C39.4834 60.0832 38.9912 59.4197 39.1906 58.7621L48.0929 29.3935C48.2238 28.9617 48.6218 28.6665 49.0729 28.6665C49.7601 28.6665 50.2522 29.3299 50.0529 29.9876L41.1505 59.3562C41.0196 59.7879 40.6217 60.0832 40.1705 60.0832Z" fill="#354793"/>
<path d="M53.7359 48.9325C52.9588 49.2406 52.1157 48.6679 52.1157 47.8319C52.1157 47.3382 52.4222 46.8963 52.8846 46.7232L59.6415 44.1943L64.3534 42.4143C64.394 42.3989 64.4209 42.36 64.4209 42.3165C64.4209 42.273 64.394 42.2341 64.3534 42.2188L59.6415 40.4387L52.8846 37.9098C52.4222 37.7368 52.1157 37.2948 52.1157 36.8011C52.1157 35.9651 52.9588 35.3924 53.7359 35.7006L66.3092 40.6856C66.9779 40.9507 67.417 41.5972 67.417 42.3165C67.417 43.0358 66.9779 43.6823 66.3092 43.9474L53.7359 48.9325Z" fill="#354793"/>
<path fill-rule="evenodd" clip-rule="evenodd" d="M35.4138 49.3973L22.8405 44.4122C21.9812 44.0715 21.417 43.2408 21.417 42.3165C21.417 41.3922 21.9812 40.5615 22.8405 40.2208L35.4138 35.2358C36.5191 34.7975 37.7182 35.612 37.7182 36.8011C37.7182 37.5034 37.2824 38.1319 36.6246 38.3781L29.8692 40.9065L29.8677 40.907L26.1367 42.3165L29.8677 43.726L29.8692 43.7265L36.6246 46.2549C37.2824 46.5011 37.7182 47.1296 37.7182 47.8319C37.7182 49.021 36.5191 49.8355 35.4138 49.3973ZM29.6925 44.1943L36.4494 46.7232C36.9118 46.8963 37.2182 47.3382 37.2182 47.8319C37.2182 48.6679 36.3752 49.2406 35.598 48.9325L23.0248 43.9474C22.3561 43.6823 21.917 43.0358 21.917 42.3165C21.917 41.5972 22.3561 40.9507 23.0248 40.6856L35.598 35.7006C36.3752 35.3924 37.2182 35.9651 37.2182 36.8011C37.2182 37.2948 36.9118 37.7368 36.4494 37.9098L29.6925 40.4387L24.9806 42.2188C24.9399 42.2341 24.913 42.273 24.913 42.3165C24.913 42.36 24.9399 42.3989 24.9806 42.4143L29.6925 44.1943ZM38.7121 58.6171L47.6144 29.2484C47.8092 28.6059 48.4015 28.1665 49.0729 28.1665C50.0956 28.1665 50.828 29.1539 50.5314 30.1326L41.629 59.5013C41.4342 60.1438 40.8419 60.5832 40.1705 60.5832C39.1478 60.5832 38.4154 59.5958 38.7121 58.6171ZM59.4648 43.7265L52.7094 46.2549C52.0516 46.5011 51.6157 47.1296 51.6157 47.8319C51.6157 49.021 52.8148 49.8355 53.9202 49.3973L66.4935 44.4122C67.3528 44.0715 67.917 43.2408 67.917 42.3165C67.917 41.3922 67.3528 40.5615 66.4935 40.2208L53.9202 35.2358C52.8148 34.7975 51.6157 35.612 51.6157 36.8011C51.6157 37.5034 52.0516 38.1319 52.7094 38.3781L59.4648 40.9065L63.1973 42.3165L59.4663 43.726L59.4648 43.7265ZM59.6415 40.4387L52.8846 37.9098C52.4222 37.7368 52.1157 37.2948 52.1157 36.8011C52.1157 35.9651 52.9588 35.3924 53.7359 35.7006L66.3092 40.6856C66.9779 40.9507 67.417 41.5972 67.417 42.3165C67.417 43.0358 66.9779 43.6823 66.3092 43.9474L53.7359 48.9325C52.9588 49.2406 52.1157 48.6679 52.1157 47.8319C52.1157 47.3382 52.4222 46.8963 52.8846 46.7232L59.6415 44.1943L64.3534 42.4143C64.394 42.3989 64.4209 42.36 64.4209 42.3165C64.4209 42.273 64.394 42.2341 64.3534 42.2188L59.6415 40.4387ZM40.1705 60.0832C39.4834 60.0832 38.9912 59.4197 39.1906 58.7621L48.0929 29.3935C48.2238 28.9617 48.6218 28.6665 49.0729 28.6665C49.7601 28.6665 50.2522 29.3299 50.0529 29.9876L41.1505 59.3562C41.0196 59.7879 40.6217 60.0832 40.1705 60.0832Z" fill="#354793"/>
<path d="M12.1663 14.5832C12.1663 15.7798 11.1963 16.7498 9.99967 16.7498C8.80306 16.7498 7.83301 15.7798 7.83301 14.5832C7.83301 13.3866 8.80306 12.4165 9.99967 12.4165C11.1963 12.4165 12.1663 13.3866 12.1663 14.5832Z" fill="#354793"/>
<path fill-rule="evenodd" clip-rule="evenodd" d="M9.99967 13.7498C9.53944 13.7498 9.16634 14.1229 9.16634 14.5832C9.16634 15.0434 9.53944 15.4165 9.99967 15.4165C10.4599 15.4165 10.833 15.0434 10.833 14.5832C10.833 14.1229 10.4599 13.7498 9.99967 13.7498ZM9.99967 16.7498C11.1963 16.7498 12.1663 15.7798 12.1663 14.5832C12.1663 13.3866 11.1963 12.4165 9.99967 12.4165C8.80306 12.4165 7.83301 13.3866 7.83301 14.5832C7.83301 15.7798 8.80306 16.7498 9.99967 16.7498Z" fill="#354793"/>
<path d="M18.6663 14.5832C18.6663 15.7798 17.6963 16.7498 16.4997 16.7498C15.3031 16.7498 14.333 15.7798 14.333 14.5832C14.333 13.3866 15.3031 12.4165 16.4997 12.4165C17.6963 12.4165 18.6663 13.3866 18.6663 14.5832Z" fill="#354793"/>
<path fill-rule="evenodd" clip-rule="evenodd" d="M16.4997 13.7498C16.0394 13.7498 15.6663 14.1229 15.6663 14.5832C15.6663 15.0434 16.0394 15.4165 16.4997 15.4165C16.9599 15.4165 17.333 15.0434 17.333 14.5832C17.333 14.1229 16.9599 13.7498 16.4997 13.7498ZM16.4997 16.7498C17.6963 16.7498 18.6663 15.7798 18.6663 14.5832C18.6663 13.3866 17.6963 12.4165 16.4997 12.4165C15.3031 12.4165 14.333 13.3866 14.333 14.5832C14.333 15.7798 15.3031 16.7498 16.4997 16.7498Z" fill="#354793"/>
<path d="M25.1663 14.5832C25.1663 15.7798 24.1963 16.7498 22.9997 16.7498C21.8031 16.7498 20.833 15.7798 20.833 14.5832C20.833 13.3866 21.8031 12.4165 22.9997 12.4165C24.1963 12.4165 25.1663 13.3866 25.1663 14.5832Z" fill="#354793"/>
<path fill-rule="evenodd" clip-rule="evenodd" d="M22.9997 13.7498C22.5394 13.7498 22.1663 14.1229 22.1663 14.5832C22.1663 15.0434 22.5394 15.4165 22.9997 15.4165C23.4599 15.4165 23.833 15.0434 23.833 14.5832C23.833 14.1229 23.4599 13.7498 22.9997 13.7498ZM22.9997 16.7498C24.1963 16.7498 25.1663 15.7798 25.1663 14.5832C25.1663 13.3866 24.1963 12.4165 22.9997 12.4165C21.8031 12.4165 20.833 13.3866 20.833 14.5832C20.833 15.7798 21.8031 16.7498 22.9997 16.7498Z" fill="#354793"/>
</g>
</svg>
