<svg width="87" height="65" viewBox="0 0 87 65" fill="none" xmlns="http://www.w3.org/2000/svg">
<mask id="mask0" mask-type="alpha" maskUnits="userSpaceOnUse" x="0" y="0" width="87" height="65">
<path d="M1.83334 61L1.83334 4C1.83334 2.61928 2.95263 1.5 4.33334 1.5L83 1.5C84.3807 1.5 85.5 2.61929 85.5 4L85.5 41.6L85.5 61C85.5 62.3807 84.3807 63.5 83 63.5L64.7143 63.5L4.33333 63.5C2.95263 63.5 1.83334 62.3807 1.83334 61Z" fill="white" stroke="#354793" stroke-width="3"/>
</mask>
<g mask="url(#mask0)">
<ellipse rx="31.4777" ry="30.7195" transform="matrix(-0.707107 -0.707107 0.736339 -0.676613 74.4615 46.2931)" fill="#FFE01B"/>
<path d="M85.5 4L85.5 11.5L1.83334 11.5L1.83334 4C1.83334 2.61928 2.95263 1.5 4.33334 1.5L83 1.5C84.3807 1.5 85.5 2.61929 85.5 4ZM1.83334 61L1.83334 14.5L85.5 14.5L85.5 41.6L85.5 61C85.5 62.3807 84.3807 63.5 83 63.5L64.7143 63.5L4.33333 63.5C2.95263 63.5 1.83334 62.3807 1.83334 61Z" stroke="#354793" stroke-width="3"/>
<path d="M21.9326 37.1798L34.5059 42.1649C35.4472 42.538 36.4682 41.8445 36.4682 40.8319C36.4682 40.2339 36.0971 39.6987 35.537 39.489L28.7808 36.9604L28.7801 36.9601L24.4293 35.3165L28.7801 33.6729L28.7808 33.6726L35.537 31.144C36.0971 30.9343 36.4682 30.3991 36.4682 29.8011C36.4682 28.7885 35.4472 28.095 34.5059 28.4681L21.9326 33.4532C21.1687 33.7561 20.667 34.4947 20.667 35.3165C20.667 36.1383 21.1687 36.8769 21.9326 37.1798ZM46.8537 22.3209L37.9513 51.6896C37.7033 52.5078 38.3156 53.3332 39.1705 53.3332C39.7318 53.3332 40.2269 52.9659 40.3898 52.4287L49.2921 23.0601C49.5401 22.2419 48.9278 21.4165 48.0729 21.4165C47.5116 21.4165 47.0165 21.7838 46.8537 22.3209ZM58.5532 36.9604L51.797 39.489C51.2369 39.6987 50.8657 40.2339 50.8657 40.8319C50.8657 41.8445 51.8868 42.538 52.8281 42.1649L65.4014 37.1798C66.1653 36.8769 66.667 36.1383 66.667 35.3165C66.667 34.4947 66.1653 33.7561 65.4014 33.4532L52.8281 28.4682C51.8868 28.095 50.8657 28.7885 50.8657 29.8011C50.8657 30.3991 51.2369 30.9343 51.797 31.144L58.5532 33.6726L58.5539 33.6729L62.9047 35.3165L58.5539 36.9601L58.5532 36.9604Z" fill="#354793" stroke="#354793" stroke-width="0.5"/>
<circle cx="8.99967" cy="7.58317" r="1.5" fill="#354793" stroke="#354793" stroke-width="1.33333"/>
<circle cx="15.4997" cy="7.58317" r="1.5" fill="#354793" stroke="#354793" stroke-width="1.33333"/>
<circle cx="21.9997" cy="7.58317" r="1.5" fill="#354793" stroke="#354793" stroke-width="1.33333"/>
</g>
</svg>
