<svg width="80" height="60" viewBox="0 0 80 60" fill="none" xmlns="http://www.w3.org/2000/svg">
<mask id="mask0" mask-type="alpha" maskUnits="userSpaceOnUse" x="0" y="0" width="80" height="60">
<path d="M76 1.5C77.3807 1.5 78.5 2.61929 78.5 4L78.5 38.4L78.5 56C78.5 57.3807 77.3807 58.5 76 58.5L59.4286 58.5L4 58.5C2.61928 58.5 1.5 57.3807 1.5 56L1.5 4C1.5 2.61929 2.61929 1.5 4 1.5L76 1.5Z" fill="white" stroke="#354793" stroke-width="3"/>
</mask>
<g mask="url(#mask0)">
<ellipse rx="29.0563" ry="28.3565" transform="matrix(-0.707107 -0.707107 0.736339 -0.676613 68.4259 42.7321)" fill="#FFE01B"/>
<path d="M76 1.5C77.3807 1.5 78.5 2.61929 78.5 4L78.5 12L78.5 38.4L78.5 56C78.5 57.3807 77.3807 58.5 76 58.5L59.4286 58.5L4 58.5C2.61928 58.5 1.5 57.3807 1.5 56L1.5 12L1.5 4C1.5 2.61929 2.61929 1.5 4 1.5L76 1.5Z" stroke="#354793" stroke-width="3"/>
<path d="M26.265 34.0992L22.2965 32.6L26.265 31.1008L26.2657 31.1005L32.5021 28.7664C33.0266 28.5701 33.3742 28.0689 33.3742 27.5088C33.3742 26.5606 32.418 25.9111 31.5365 26.2606L19.9304 30.8622C19.2179 31.1447 18.75 31.8335 18.75 32.6C18.75 33.3665 19.2179 34.0553 19.9304 34.3378L31.5365 38.9394C32.418 39.2889 33.3742 38.6394 33.3742 37.6912C33.3742 37.1311 33.0266 36.6299 32.5021 36.4336L26.2657 34.0995L26.265 34.0992ZM34.7056 47.708C34.4729 48.4756 35.0473 49.25 35.8494 49.25C36.376 49.25 36.8405 48.9054 36.9933 48.4015L45.2108 21.292C45.4435 20.5244 44.8691 19.75 44.067 19.75C43.5404 19.75 43.0759 20.0946 42.9231 20.5985L34.7056 47.708ZM46.6258 37.6912C46.6258 38.6394 47.582 39.2889 48.4635 38.9394L60.0696 34.3378C60.7821 34.0553 61.25 33.3665 61.25 32.6C61.25 31.8335 60.7821 31.1447 60.0696 30.8622L48.4635 26.2606C47.582 25.9111 46.6258 26.5606 46.6258 27.5088C46.6258 28.0689 46.9734 28.5701 47.4979 28.7664L53.7343 31.1005L53.735 31.1008L57.7035 32.6L53.735 34.0992L53.7343 34.0995L47.4979 36.4336C46.9734 36.6299 46.6258 37.1311 46.6258 37.6912Z" fill="#354793" stroke="#354793" stroke-width="0.5"/>
<circle cx="8" cy="7" r="1.5" fill="#354793" stroke="#354793"/>
<circle cx="14" cy="7" r="1.5" fill="#354793" stroke="#354793"/>
<circle cx="20" cy="7" r="1.5" fill="#354793" stroke="#354793"/>
</g>
</svg>
