<svg width="86" height="80" viewBox="0 0 86 80" fill="none" xmlns="http://www.w3.org/2000/svg">
<mask id="mask0" mask-type="alpha" maskUnits="userSpaceOnUse" x="7" y="0" width="72" height="81">
<path d="M52.8507 1.50187H52.8509L74.6416 1.50029C76.0224 1.50019 77.1418 2.6195 77.1418 4.00029V20.5728V76C77.1418 77.3807 76.0225 78.5 74.6418 78.5H11C9.61929 78.5 8.5 77.3807 8.5 76V4.00187C8.5 2.62116 9.61929 1.50187 11 1.50187H52.8507Z" fill="white" stroke="#354793" stroke-width="3"/>
</mask>
<g mask="url(#mask0)">
<ellipse rx="51.7349" ry="50.4888" transform="matrix(-0.707107 0.707107 -0.676613 -0.736339 81.3249 86.893)" fill="#FFE01B"/>
<path d="M52.8507 1.50187H52.8509L74.6416 1.50029C76.0224 1.50019 77.1418 2.6195 77.1418 4.00029V20.5728V76C77.1418 77.3807 76.0225 78.5 74.6418 78.5H11C9.61929 78.5 8.5 77.3807 8.5 76V4.00187C8.5 2.62116 9.61929 1.50187 11 1.50187H52.8507Z" stroke="#354793" stroke-width="3"/>
<line x1="25.2988" y1="62.6162" x2="25.2988" y2="17.8998" stroke="#354793" stroke-width="4" stroke-linecap="round" stroke-linejoin="round"/>
<line x1="44.4023" y1="62.6167" x2="44.4023" y2="17.9003" stroke="#354793" stroke-width="4" stroke-linecap="round" stroke-linejoin="round"/>
<line x1="34.8506" y1="62.6167" x2="34.8506" y2="40.8257" stroke="#354793" stroke-width="4" stroke-linecap="round" stroke-linejoin="round"/>
<line x1="56.6846" y1="62.6167" x2="56.6846" y2="40.8257" stroke="#354793" stroke-width="4" stroke-linecap="round" stroke-linejoin="round"/>
</g>
</svg>
