<svg width="72" height="81" viewBox="0 0 72 81" fill="none" xmlns="http://www.w3.org/2000/svg">
<mask id="mask0" mask-type="alpha" maskUnits="userSpaceOnUse" x="0" y="0" width="72" height="82">
<path d="M46.08 2.10198H46.0801L67.9998 2.10039C69.3806 2.10029 70.5 3.21961 70.5 4.60039V21.2758V77.0001C70.5 78.3808 69.3807 79.5001 68 79.5001H4C2.61929 79.5001 1.5 78.3808 1.5 77.0001V4.60197C1.5 3.22126 2.61929 2.10198 4 2.10198H46.08Z" fill="white" stroke="#354793" stroke-width="3"/>
</mask>
<g mask="url(#mask0)">
<ellipse rx="51.9935" ry="50.7412" transform="matrix(-0.707107 0.707107 -0.676613 -0.736339 74.6968 87.9276)" fill="#FFE01B"/>
<path d="M46.08 2.10198H46.0801L67.9998 2.10039C69.3806 2.10029 70.5 3.21961 70.5 4.60039V21.2758V77.0001C70.5 78.3808 69.3807 79.5001 68 79.5001H4C2.61929 79.5001 1.5 78.3808 1.5 77.0001V4.60197C1.5 3.22126 2.61929 2.10198 4 2.10198H46.08Z" stroke="#354793" stroke-width="3"/>
<line x1="18.4004" y1="63.5391" x2="18.4004" y2="18.5791" stroke="#354793" stroke-width="4" stroke-linecap="round" stroke-linejoin="round"/>
<line x1="37.5996" y1="63.5396" x2="37.5996" y2="18.5796" stroke="#354793" stroke-width="4" stroke-linecap="round" stroke-linejoin="round"/>
<line x1="28" y1="63.5396" x2="28" y2="41.6196" stroke="#354793" stroke-width="4" stroke-linecap="round" stroke-linejoin="round"/>
<line x1="49.9434" y1="63.5396" x2="49.9434" y2="41.6196" stroke="#354793" stroke-width="4" stroke-linecap="round" stroke-linejoin="round"/>
</g>
</svg>
