<svg width="60" height="80" viewBox="0 0 60 80" fill="none" xmlns="http://www.w3.org/2000/svg">
<mask id="mask0" mask-type="alpha" maskUnits="userSpaceOnUse" x="0" y="0" width="61" height="81">
<path d="M58.5001 11.6409V76.0002C58.5001 77.3809 57.3808 78.5002 56.0001 78.5002H4C2.61929 78.5002 1.5 77.3809 1.5 76.0002V3.99999C1.5 2.61929 2.61929 1.5 4 1.5H47.389V6.14087C47.389 9.17843 49.8514 11.6409 52.889 11.6409H58.5001ZM56.1315 8.64087H52.889C51.5083 8.64087 50.389 7.52158 50.389 6.14087V3.39983L53.4334 6.17836L56.1315 8.64087Z" fill="#354793" stroke="black" stroke-width="3"/>
</mask>
<g mask="url(#mask0)">
<ellipse rx="29.0564" ry="28.3565" transform="matrix(0.876269 0.481823 -0.5184 0.855138 37.1616 90.2488)" fill="#FFE01B"/>
<path fill-rule="evenodd" clip-rule="evenodd" d="M38.4001 0H4C1.79086 0 0 1.79086 0 3.99999V76.0002C0 78.2093 1.79086 80.0002 4 80.0002H56.0001C58.2093 80.0002 60.0001 78.2093 60.0001 76.0002V20.5715L38.4001 0ZM54.0751 19.0715L39.9001 5.57143V16.5715C39.9001 17.9522 41.0194 19.0715 42.4001 19.0715H54.0751ZM36.9001 3H4C3.44771 3 3 3.44772 3 3.99999V76.0002C3 76.5524 3.44772 77.0002 4 77.0002H56.0001C56.5524 77.0002 57.0001 76.5524 57.0001 76.0002V22.0715H42.4001C39.3625 22.0715 36.9001 19.609 36.9001 16.5715V3Z" fill="#354793"/>
<line x1="11.1006" y1="29.0713" x2="48.9007" y2="29.0713" stroke="#354793" stroke-width="3" stroke-linecap="round"/>
<line x1="11.1006" y1="45.0713" x2="48.9007" y2="45.0713" stroke="#354793" stroke-width="3" stroke-linecap="round"/>
<line x1="11.1006" y1="37.0713" x2="29.7006" y2="37.0713" stroke="#354793" stroke-width="3" stroke-linecap="round"/>
<line x1="11.1006" y1="55.3569" x2="29.7006" y2="55.3569" stroke="#354793" stroke-width="3" stroke-linecap="round"/>
</g>
</svg>
