<svg width="86" height="80" viewBox="0 0 86 80" fill="none" xmlns="http://www.w3.org/2000/svg">
<g clip-path="url(#clip0)">
<rect width="86" height="80" fill="white"/>
<mask id="mask0" mask-type="alpha" maskUnits="userSpaceOnUse" x="13" y="0" width="61" height="81">
<path d="M71.5001 11.6409V76.0002C71.5001 77.3809 70.3808 78.5002 69.0001 78.5002H17C15.6193 78.5002 14.5 77.3809 14.5 76.0002V3.99999C14.5 2.61929 15.6193 1.5 17 1.5H60.389V6.14087C60.389 9.17843 62.8514 11.6409 65.889 11.6409H71.5001ZM69.1315 8.64087H65.889C64.5083 8.64087 63.389 7.52158 63.389 6.14087V3.39983L66.4334 6.17836L69.1315 8.64087Z" fill="#354793" stroke="black" stroke-width="3"/>
</mask>
<g mask="url(#mask0)">
<ellipse rx="29.0564" ry="28.3565" transform="matrix(0.876269 0.481823 -0.5184 0.855138 50.1616 90.2488)" fill="#FFE01B"/>
<path fill-rule="evenodd" clip-rule="evenodd" d="M51.4001 0H17C14.7909 0 13 1.79086 13 3.99999V76.0002C13 78.2093 14.7909 80.0002 17 80.0002H69.0001C71.2093 80.0002 73.0001 78.2093 73.0001 76.0002V20.5715L51.4001 0ZM67.0751 19.0715L52.9001 5.57143V16.5715C52.9001 17.9522 54.0194 19.0715 55.4001 19.0715H67.0751ZM49.9001 3H17C16.4477 3 16 3.44772 16 3.99999V76.0002C16 76.5524 16.4477 77.0002 17 77.0002H69.0001C69.5524 77.0002 70.0001 76.5524 70.0001 76.0002V22.0715H55.4001C52.3625 22.0715 49.9001 19.609 49.9001 16.5715V3Z" fill="#354793"/>
<line x1="24.1006" y1="29.0713" x2="61.9007" y2="29.0713" stroke="#354793" stroke-width="3" stroke-linecap="round"/>
<line x1="24.1006" y1="45.0713" x2="61.9007" y2="45.0713" stroke="#354793" stroke-width="3" stroke-linecap="round"/>
<line x1="24.1006" y1="37.0713" x2="42.7006" y2="37.0713" stroke="#354793" stroke-width="3" stroke-linecap="round"/>
<line x1="24.1006" y1="55.3569" x2="42.7006" y2="55.3569" stroke="#354793" stroke-width="3" stroke-linecap="round"/>
</g>
</g>
<defs>
<clipPath id="clip0">
<rect width="86" height="80" fill="white"/>
</clipPath>
</defs>
</svg>
