<svg width="80" height="80" viewBox="0 0 80 80" fill="none" xmlns="http://www.w3.org/2000/svg">
<mask id="mask0" mask-type="alpha" maskUnits="userSpaceOnUse" x="0" y="0" width="80" height="80">
<circle cx="40" cy="40" r="38.5" fill="#C4C4C4" stroke="#354793" stroke-width="3"/>
</mask>
<g mask="url(#mask0)">
<ellipse rx="23.7116" ry="23.1405" transform="matrix(-0.707107 0.707107 -0.676613 -0.736339 19.2735 72.162)" fill="#FFE01B"/>
<path fill-rule="evenodd" clip-rule="evenodd" d="M0.027605 38.5C0.00925542 38.9977 0 39.4978 0 40C0 40.5022 0.00925541 41.0023 0.027605 41.5C0.816414 62.8964 18.4108 80 40 80C61.5892 80 79.1836 62.8964 79.9724 41.5C79.9907 41.0023 80 40.5022 80 40C80 39.4978 79.9907 38.9977 79.9724 38.5C79.1836 17.1036 61.5892 0 40 0C18.4108 0 0.816414 17.1036 0.027605 38.5ZM3.02985 41.5C3.81689 61.2391 20.0679 77 40 77C59.9321 77 76.1831 61.2391 76.9701 41.5H3.02985ZM76.9701 38.5H3.02985C3.81689 18.7609 20.0679 3 40 3C59.9321 3 76.1831 18.7609 76.9701 38.5Z" fill="#354793"/>
<path fill-rule="evenodd" clip-rule="evenodd" d="M39.4121 0.281244C39.3066 0.107761 39.0865 0.0485207 38.9151 0.157444C32.3902 4.30626 20.418 17.6454 20.418 40.2575C20.418 62.8891 32.4121 75.8876 38.9563 79.842C39.121 79.9416 39.3282 79.8806 39.4244 79.714V79.714C39.5585 79.4817 39.8938 79.4817 40.028 79.714V79.714C40.1242 79.8806 40.3314 79.9416 40.4961 79.842C47.0403 75.8876 59.0344 62.8891 59.0344 40.2575C59.0344 17.6454 47.0622 4.30626 40.5372 0.157444C40.3659 0.0485207 40.1457 0.107761 40.0403 0.281244V0.281244C39.8971 0.516824 39.5552 0.516824 39.4121 0.281244V0.281244ZM41.9412 5.02196C40.6723 3.87788 38.7801 3.87788 37.5112 5.02196C31.5489 10.3977 23.418 22.0752 23.418 40.2575C23.418 58.5226 31.6222 69.9596 37.577 75.1065C38.8209 76.1816 40.6315 76.1816 41.8754 75.1065C47.8302 69.9596 56.0344 58.5226 56.0344 40.2575C56.0344 22.0752 47.9034 10.3977 41.9412 5.02196Z" fill="#354793"/>
</g>
</svg>
