<svg width="86" height="80" viewBox="0 0 86 80" fill="none" xmlns="http://www.w3.org/2000/svg">
<mask id="mask0" mask-type="alpha" maskUnits="userSpaceOnUse" x="3" y="0" width="80" height="80">
<circle cx="43" cy="40" r="38.5" fill="#C4C4C4" stroke="#354793" stroke-width="3"/>
</mask>
<g mask="url(#mask0)">
<ellipse rx="23.7116" ry="23.1405" transform="matrix(-0.707107 0.707107 -0.676613 -0.736339 22.2735 72.162)" fill="#FFE01B"/>
<path fill-rule="evenodd" clip-rule="evenodd" d="M3 40C3 39.4978 3.00926 38.9977 3.0276 38.5C3.81641 17.1036 21.4108 0 43 0C64.5892 0 82.1836 17.1036 82.9724 38.5C82.9907 38.9977 83 39.4978 83 40C83 40.5022 82.9907 41.0023 82.9724 41.5C82.1836 62.8964 64.5892 80 43 80C21.4108 80 3.81641 62.8964 3.0276 41.5C3.00926 41.0023 3 40.5022 3 40ZM37.7894 76.636C20.3057 74.1717 6.74706 59.4876 6.02985 41.5H23.4301C23.7762 59.1646 31.462 70.7787 37.7894 76.636ZM47.5714 76.7204C65.3628 74.5282 79.2442 59.7062 79.9701 41.5H62.0223C61.6745 59.2498 53.916 70.8907 47.5714 76.7204ZM62.0101 38.5H79.9701C79.2427 20.2564 65.3057 5.41092 47.4617 3.26626C53.7547 9.17997 61.5211 20.9107 62.0101 38.5ZM37.904 3.34807C20.365 5.76418 6.74862 20.4731 6.02985 38.5H23.4423C23.9291 20.9915 31.6266 9.28779 37.904 3.34807ZM26.4435 38.5C26.9458 21.3205 34.7433 10.2224 40.5112 5.02196C41.7801 3.87788 43.6723 3.87788 44.9412 5.02196C50.7091 10.2224 58.5066 21.3205 59.0088 38.5H26.4435ZM26.4307 41.5H59.0217C58.6603 59.0425 50.694 70.0773 44.8754 75.1065C43.6315 76.1816 41.8209 76.1816 40.577 75.1065C34.7584 70.0773 26.7921 59.0425 26.4307 41.5Z" fill="#354793"/>
</g>
</svg>
