<svg width="80" height="80" viewBox="0 0 80 80" fill="none" xmlns="http://www.w3.org/2000/svg">
<mask id="mask0" mask-type="alpha" maskUnits="userSpaceOnUse" x="0" y="0" width="80" height="80">
<circle cx="40" cy="40" r="38.5" fill="#C4C4C4" stroke="#354793" stroke-width="3"/>
</mask>
<g mask="url(#mask0)">
<ellipse rx="23.7116" ry="23.1405" transform="matrix(-0.707107 0.707107 -0.676613 -0.736339 19.2735 72.162)" fill="#FFE01B"/>
<path fill-rule="evenodd" clip-rule="evenodd" d="M0 40C0 39.4978 0.00925542 38.9977 0.027605 38.5C0.816414 17.1036 18.4108 0 40 0C61.5892 0 79.1836 17.1036 79.9724 38.5C79.9907 38.9977 80 39.4978 80 40C80 40.5022 79.9907 41.0023 79.9724 41.5C79.1836 62.8964 61.5892 80 40 80C18.4108 80 0.816414 62.8964 0.027605 41.5C0.00925541 41.0023 0 40.5022 0 40ZM34.7894 76.636C17.3057 74.1717 3.74706 59.4876 3.02985 41.5H20.4301C20.7762 59.1646 28.462 70.7787 34.7894 76.636ZM44.5714 76.7204C62.3628 74.5282 76.2442 59.7062 76.9701 41.5H59.0223C58.6745 59.2498 50.916 70.8907 44.5714 76.7204ZM59.0101 38.5H76.9701C76.2427 20.2564 62.3057 5.41092 44.4617 3.26626C50.7547 9.17997 58.5211 20.9107 59.0101 38.5ZM34.904 3.34807C17.365 5.76418 3.74862 20.4731 3.02985 38.5H20.4423C20.9291 20.9915 28.6266 9.28779 34.904 3.34807ZM23.4435 38.5C23.9458 21.3205 31.7433 10.2224 37.5112 5.02196C38.7801 3.87788 40.6723 3.87788 41.9412 5.02196C47.7091 10.2224 55.5066 21.3205 56.0088 38.5H23.4435ZM23.4307 41.5H56.0217C55.6603 59.0425 47.694 70.0773 41.8754 75.1065C40.6315 76.1816 38.8209 76.1816 37.577 75.1065C31.7584 70.0773 23.7921 59.0425 23.4307 41.5Z" fill="#354793"/>
</g>
</svg>
