<svg width="80" height="80" viewBox="0 0 80 80" fill="none" xmlns="http://www.w3.org/2000/svg">
<mask id="mask0" mask-type="alpha" maskUnits="userSpaceOnUse" x="0" y="0" width="80" height="80">
<circle cx="40" cy="40" r="38.5" fill="#C4C4C4" stroke="#354793" stroke-width="3"/>
</mask>
<g mask="url(#mask0)">
<ellipse rx="23.7116" ry="23.1405" transform="matrix(-0.707107 0.707107 -0.676613 -0.736339 19.2735 72.162)" fill="#FFE01B"/>
<path d="M40 1.5C60.7607 1.5 77.6834 17.9323 78.4713 38.5H1.52868C2.31664 17.9323 19.2393 1.5 40 1.5ZM1.52868 41.5H78.4713C77.6834 62.0677 60.7607 78.5 40 78.5C19.2393 78.5 2.31664 62.0677 1.52868 41.5Z" stroke="#354793" stroke-width="3"/>
<path d="M40.0002 1.0957C33.9728 4.74867 21.918 17.6436 21.918 39.9998C21.918 62.356 33.9728 74.8857 40.0002 78.356" stroke="#354793" stroke-width="3"/>
<path fill-rule="evenodd" clip-rule="evenodd" d="M39.4121 0.281244C39.3066 0.107761 39.0865 0.0485207 38.9151 0.157444C32.3902 4.30626 20.418 17.6454 20.418 40.2575C20.418 62.8891 32.4121 75.8876 38.9563 79.842C39.121 79.9416 39.3282 79.8806 39.4244 79.714V79.714C39.5585 79.4817 39.8938 79.4817 40.028 79.714V79.714C40.1242 79.8806 40.3314 79.9416 40.4961 79.842C47.0403 75.8876 59.0344 62.8891 59.0344 40.2575C59.0344 17.6454 47.0622 4.30626 40.5372 0.157444C40.3659 0.0485207 40.1457 0.107761 40.0403 0.281244V0.281244C39.8971 0.516824 39.5552 0.516824 39.4121 0.281244V0.281244ZM41.9412 5.02196C40.6723 3.87788 38.7801 3.87788 37.5112 5.02196C31.5489 10.3977 23.418 22.0752 23.418 40.2575C23.418 58.5226 31.6222 69.9596 37.577 75.1065C38.8209 76.1816 40.6315 76.1816 41.8754 75.1065C47.8302 69.9596 56.0344 58.5226 56.0344 40.2575C56.0344 22.0752 47.9034 10.3977 41.9412 5.02196Z" fill="#354793"/>
</g>
</svg>
