<svg width="80" height="80" viewBox="0 0 80 80" fill="none" xmlns="http://www.w3.org/2000/svg">
<rect width="80" height="80" fill="white"/>
<mask id="mask0" mask-type="alpha" maskUnits="userSpaceOnUse" x="7" y="7" width="65" height="66">
<circle cx="39.5" cy="39.9004" r="31" fill="#C4C4C4" stroke="#354793" stroke-width="3"/>
</mask>
<g mask="url(#mask0)">
<ellipse rx="26.1022" ry="26.1022" transform="matrix(0.876269 0.481823 -0.5184 0.855138 56.3949 72.859)" fill="#FFE01B"/>
<circle cx="39.5" cy="39.9004" r="31" stroke="#354793" stroke-width="3"/>
<path d="M40.0241 60.868C55.269 60.868 59.2476 49.4837 59.4137 42.9594C59.4274 42.4206 58.9829 41.9971 58.4439 41.9971H21.6042C21.0653 41.9971 20.6207 42.4206 20.6344 42.9594C20.8006 49.4837 24.7792 60.868 40.0241 60.868Z" stroke="#354793" stroke-width="3"/>
<path d="M31.1128 29.4167C31.1128 26.5217 28.7659 24.1748 25.8708 24.1748C22.9758 24.1748 20.6289 26.5217 20.6289 29.4167" stroke="#354793" stroke-width="3" stroke-linejoin="round"/>
<path d="M59.4194 29.4167C59.4194 26.5217 57.0725 24.1748 54.1775 24.1748C51.2824 24.1748 48.9355 26.5217 48.9355 29.4167" stroke="#354793" stroke-width="3" stroke-linejoin="round"/>
</g>
</svg>
