<svg width="66" height="65" viewBox="0 0 66 65" fill="none" xmlns="http://www.w3.org/2000/svg">
<mask id="mask0" mask-type="alpha" maskUnits="userSpaceOnUse" x="0" y="0" width="66" height="65">
<circle cx="33" cy="32.5" r="31" fill="#C4C4C4" stroke="#354793" stroke-width="3"/>
</mask>
<g mask="url(#mask0)">
<ellipse rx="26.1022" ry="26.1022" transform="matrix(0.876269 0.481823 -0.5184 0.855138 49.8949 65.4587)" fill="#FFE01B"/>
<circle cx="33" cy="32.5" r="31" stroke="#354793" stroke-width="3"/>
<path d="M33.5241 53.4676C48.769 53.4676 52.7476 42.0833 52.9137 35.559C52.9274 35.0202 52.4829 34.5967 51.9439 34.5967H15.1042C14.5653 34.5967 14.1207 35.0202 14.1344 35.559C14.3006 42.0833 18.2792 53.4676 33.5241 53.4676Z" stroke="#354793" stroke-width="3"/>
<path d="M24.6128 22.0163C24.6128 19.1213 22.2659 16.7744 19.3708 16.7744C16.4758 16.7744 14.1289 19.1213 14.1289 22.0163" stroke="#354793" stroke-width="3" stroke-linejoin="round"/>
<path d="M52.9194 22.0163C52.9194 19.1213 50.5725 16.7744 47.6775 16.7744C44.7824 16.7744 42.4355 19.1213 42.4355 22.0163" stroke="#354793" stroke-width="3" stroke-linejoin="round"/>
</g>
</svg>
