<svg width="100" height="80" viewBox="0 0 100 80" fill="none" xmlns="http://www.w3.org/2000/svg">
<mask id="mask0" mask-type="alpha" maskUnits="userSpaceOnUse" x="0" y="7" width="79" height="60">
<path d="M74.1953 8.90039C75.576 8.90039 76.6953 10.0197 76.6953 11.4004L76.6953 44.9342L76.6953 62.047C76.6953 63.4277 75.576 64.547 74.1953 64.547L58.0879 64.547L3.99982 64.547C2.61911 64.547 1.49982 63.4277 1.49982 62.047L1.49982 11.4004C1.49982 10.0197 2.61912 8.90039 3.99982 8.90039L74.1953 8.90039Z" fill="white" stroke="#354793" stroke-width="3"/>
</mask>
<g mask="url(#mask0)">
<ellipse rx="28.4009" ry="27.7169" transform="matrix(-0.707107 -0.707107 0.736339 -0.676613 -3.34829 14.9579)" fill="#FFE01B"/>
<path d="M74.1953 8.90039C75.576 8.90039 76.6953 10.0197 76.6953 11.4004L76.6953 44.9342L76.6953 62.047C76.6953 63.4277 75.576 64.547 74.1953 64.547L58.0879 64.547L3.99982 64.547C2.61911 64.547 1.49982 63.4277 1.49982 62.047L1.49982 11.4004C1.49982 10.0197 2.61912 8.90039 3.99982 8.90039L74.1953 8.90039Z" stroke="#354793" stroke-width="3"/>
<line x1="17.4824" y1="30.814" x2="57.3621" y2="30.814" stroke="#354793" stroke-width="4" stroke-linejoin="round"/>
<line x1="17.4824" y1="38.6333" x2="38.5952" y2="38.6333" stroke="#354793" stroke-width="4" stroke-linejoin="round"/>
</g>
<path d="M97.744 55.2953C97.744 63.9326 90.7422 70.9344 82.1049 70.9344C73.4677 70.9344 66.4658 63.9326 66.4658 55.2953C66.4658 46.6581 73.4677 39.6562 82.1049 39.6562C90.7422 39.6563 97.744 46.6581 97.744 55.2953Z" fill="#F6F6F4"/>
<path fill-rule="evenodd" clip-rule="evenodd" d="M82.1053 41.1223C74.2778 41.1223 67.9323 47.4677 67.9323 55.2952C67.9323 63.1227 74.2778 69.4681 82.1053 69.4681C89.9328 69.4681 96.2782 63.1227 96.2782 55.2952C96.2782 47.4677 89.9328 41.1223 82.1053 41.1223ZM65 55.2952C65 45.8482 72.6583 38.1899 82.1053 38.1899C91.5522 38.1899 99.2105 45.8482 99.2105 55.2952C99.2105 64.7422 91.5522 72.4005 82.1053 72.4005C72.6583 72.4005 65 64.7422 65 55.2952ZM83.0827 46.0095C83.8924 46.0095 84.5489 46.6659 84.5489 47.4757V55.2952C84.5489 56.6448 83.4548 57.7388 82.1053 57.7388H74.2857C73.476 57.7388 72.8195 57.0824 72.8195 56.2726C72.8195 55.4629 73.476 54.8065 74.2857 54.8065H81.6165V47.4757C81.6165 46.6659 82.273 46.0095 83.0827 46.0095Z" fill="#354793"/>
</svg>
