<svg width="100" height="65" viewBox="0 0 100 65" fill="none" xmlns="http://www.w3.org/2000/svg">
<mask id="mask0" mask-type="alpha" maskUnits="userSpaceOnUse" x="0" y="0" width="79" height="59">
<path d="M1.49982 54.6466L1.49982 4C1.49982 2.61928 2.61912 1.5 3.99982 1.5L74.1953 1.5C75.576 1.5 76.6953 2.61929 76.6953 4L76.6953 37.5338L76.6953 54.6466C76.6953 56.0273 75.576 57.1466 74.1953 57.1466L58.0879 57.1466L3.99982 57.1466C2.61911 57.1466 1.49982 56.0273 1.49982 54.6466Z" fill="white" stroke="#354793" stroke-width="3"/>
</mask>
<g mask="url(#mask0)">
<ellipse rx="28.4009" ry="27.7169" transform="matrix(-0.707107 -0.707107 0.736339 -0.676613 -3.34829 7.55749)" fill="#FFE01B"/>
<path d="M1.49982 54.6466L1.49982 4C1.49982 2.61928 2.61912 1.5 3.99982 1.5L74.1953 1.5C75.576 1.5 76.6953 2.61929 76.6953 4L76.6953 37.5338L76.6953 54.6466C76.6953 56.0273 75.576 57.1466 74.1953 57.1466L58.0879 57.1466L3.99982 57.1466C2.61911 57.1466 1.49982 56.0273 1.49982 54.6466Z" stroke="#354793" stroke-width="3"/>
<line x1="17.4824" y1="23.4136" x2="57.3621" y2="23.4136" stroke="#354793" stroke-width="4" stroke-linejoin="round"/>
<line x1="17.4824" y1="31.2329" x2="38.5952" y2="31.2329" stroke="#354793" stroke-width="4" stroke-linejoin="round"/>
</g>
<path d="M97.744 47.895C97.744 56.5322 90.7422 63.5341 82.1049 63.5341C73.4677 63.5341 66.4658 56.5322 66.4658 47.895C66.4658 39.2577 73.4677 32.2559 82.1049 32.2559C90.7422 32.2559 97.744 39.2577 97.744 47.895Z" fill="#F6F6F4"/>
<path fill-rule="evenodd" clip-rule="evenodd" d="M82.1053 33.7219C74.2778 33.7219 67.9323 40.0673 67.9323 47.8948C67.9323 55.7223 74.2778 62.0677 82.1053 62.0677C89.9328 62.0677 96.2782 55.7223 96.2782 47.8948C96.2782 40.0673 89.9328 33.7219 82.1053 33.7219ZM65 47.8948C65 38.4478 72.6583 30.7896 82.1053 30.7896C91.5522 30.7896 99.2105 38.4478 99.2105 47.8948C99.2105 57.3418 91.5522 65.0001 82.1053 65.0001C72.6583 65.0001 65 57.3418 65 47.8948ZM83.0827 38.6091C83.8924 38.6091 84.5489 39.2655 84.5489 40.0753V47.8948C84.5489 49.2444 83.4548 50.3384 82.1053 50.3384H74.2857C73.476 50.3384 72.8195 49.682 72.8195 48.8723C72.8195 48.0625 73.476 47.4061 74.2857 47.4061H81.6165V40.0753C81.6165 39.2655 82.273 38.6091 83.0827 38.6091Z" fill="#354793"/>
</svg>
