<svg width="17" height="17" viewBox="0 0 17 17" fill="none" xmlns="http://www.w3.org/2000/svg">
<path fill-rule="evenodd" clip-rule="evenodd" d="M6.69733 4.9287C6.69733 4.9941 6.8379 5.165 6.7323 5.2383C6.5078 5.0146 6.72271 5.2227 6.53131 5.2227C6.47851 4.8242 6.32233 5.1367 6.29883 5.1143C6.31453 5.1729 6.41983 5.6279 6.26562 5.6328C6.16022 5.4854 6.123 5.3242 6.1543 5.1514C6.1563 5.2012 6.13671 5.2461 6.09961 5.2881C6.05261 5.2881 6.03519 5.1162 6.18359 5.0566C6.18359 5.0615 6.61328 4.8477 6.71478 4.8105C6.76168 4.8135 6.73927 4.8164 6.72357 4.8145C6.79097 4.8301 6.84958 4.8594 6.89838 4.9063C6.85158 4.8994 6.69733 4.9629 6.69733 4.9287V4.9287ZM6.25 4.7891C6.25 4.5771 5.66399 5.001 5.61719 5.1631C5.75779 5.1436 6.2637 4.9141 6.3457 4.9141C6.3555 4.8574 6.293 4.7891 6.25 4.7891V4.7891ZM17 8.5C17 13.1943 13.1943 17 8.5 17C3.8057 17 0 13.1943 0 8.5C0 3.8057 3.8057 0 8.5 0C13.1943 0 17 3.8057 17 8.5ZM9.19531 8.0449C9.35931 8.0742 9.42581 7.8955 9.62701 7.9492C9.62701 7.7197 9.94531 7.7773 9.94531 7.6162C9.80861 7.585 9.70122 7.6211 9.66022 7.583C9.60162 7.6387 9.22852 7.7119 9.22852 7.8076C9.32622 7.8174 9.07811 7.9697 9.19531 8.0449V8.0449ZM8.75 7.6406C8.627 7.7383 7.81837 7.7627 7.61517 8.1895C7.77717 8.1484 8.69717 7.7441 8.67188 8.0488C8.83187 7.9424 9.00201 7.9141 9.09961 7.7783C9.06641 7.7471 8.75 7.6406 8.75 7.6406V7.6406ZM5.61719 1.4395C5.61719 1.5361 5.71091 1.6035 5.69531 1.6729C5.72271 1.6611 6.60157 1.6113 6.61517 1.6064C6.61517 1.627 7.40818 1.9521 7.46088 1.9727C7.46088 1.9727 8.30658 1.9141 8.33008 1.9287C8.22848 1.8271 7.95108 1.2822 7.71478 1.2012C7.82028 1.2012 7.90819 1.0732 7.80469 1.001C7.76169 1.0078 6.75003 0.853497 6.70312 0.860397C6.71192 0.906297 6.5713 0.879901 6.4491 0.852501C6.4756 0.850601 6.5156 0.841797 6.4491 0.841797C6.4355 0.846697 6.4375 0.847702 6.4375 0.849602C6.3809 0.836902 6.33201 0.825198 6.30371 0.819298C6.30761 0.818398 6.3057 0.817399 6.2832 0.816399C6.207 0.858399 6.2188 0.8896 6.3125 0.917C5.9941 0.917 5.65629 1.3594 5.61719 1.4395V1.4395ZM6 2.7363C6.0332 2.7578 6.1992 2.6641 6.2168 2.6455C6.207 2.626 6.58401 2.7461 6.88281 2.6006C6.83401 2.499 6.73437 2.4814 6.58197 2.5459C6.60937 2.5186 6.64837 2.1201 6.64447 2.1045C6.48627 2.1348 5.84961 2.0361 5.84961 2.1094C5.84181 2.0742 5.2363 2.2725 5.3476 2.1133C5.0996 2.1279 5.21481 2.4727 5.21881 2.4365C5.44141 2.4932 6.22072 2.1973 6.16602 2.4082C6.36722 2.3584 5.9688 2.708 6 2.7363V2.7363ZM5.0625 1.6143C5.1211 1.6143 5.07229 1.9268 5.15039 1.9639C5.16599 1.959 5.5 1.8525 5.5 1.7725C5.4375 1.7725 5.48628 1.7002 5.51758 1.6729C5.54488 1.6904 5.66408 1.2988 5.58398 1.2988C5.43748 1.3896 5.1406 1.4414 5.0625 1.6143V1.6143ZM15 9.5537C15 9.3779 15.371 8.2988 14.8525 8.4404C14.5615 8.2148 14.1074 8.7969 14.1084 8.7871C14.1024 8.7852 13.9102 8.542 13.9004 8.5635C13.6738 8.7012 13 8.9053 13 8.9121C13 8.9121 12.952 8.1445 12.4629 8.2891C12.2139 8.7119 11.2813 8.2178 11.2813 8.2178C10.623 8.6621 10.2021 8.6543 10.2158 8.6641C10.2158 8.6309 10.1308 9.0137 10.1514 9.1025C9.97363 8.9629 10.0781 8.7803 10.0049 8.6523C9.61518 8.668 9.65718 9.5361 9.55658 9.6191C9.05178 9.5449 8.65333 9.9951 8.36133 9.4209C8.37113 9.4277 8.37992 9.3945 8.35162 9.3945C8.35352 9.4082 8.35637 9.415 8.35938 9.418C8.35237 9.4033 8.34381 9.3965 8.33691 9.3809C8.21001 9.1045 8.34282 9.1104 8.10352 9.0381C8.12502 8.9424 7.48829 9.2705 7.42969 9.2285C7.46879 9.1465 7.36912 8.8066 7.38092 8.7793C7.39062 8.7813 7.43363 8.3555 7.35553 8.3438C7.23833 8.5537 6.93349 8.3965 6.99799 8.7334C7.02339 8.8643 6.0605 8.9023 6.039 8.8711C5.8848 8.8711 5.78712 8.1162 5.73242 8.0342C5.72842 8.0342 5.0314 7.1563 6.9707 7.0752C7.0498 7.0723 7.2734 6.9688 7.6543 7.334C7.9141 7.7188 8.3438 7.375 8 7.0391C8.0137 7.0527 7.49599 6.5156 7.49799 6.5205C7.51169 6.5303 7.74601 5.7988 7.81451 5.7725C7.81451 5.6855 7.74799 5.3799 7.74799 5.377C7.74799 5.3174 8.04102 4.7773 8.04102 4.7773C8.04692 4.9258 8.07802 4.2773 8.33002 4.3711C8.33402 4.3662 8.5957 3.9346 8.5957 3.9346C8.4785 3.9863 8.55471 3.8086 8.50201 3.7344C8.54301 3.7188 8.43951 3.9932 8.44531 3.9775C8.23341 3.9951 7.9922 3.7305 8.0293 3.7344C7.7773 3.5459 7.65631 4.2188 7.57031 4.2744C7.57031 3.7422 8.02531 3.4863 8.32031 3.1885C8.56641 2.9395 7.86328 2.8633 7.86328 2.9727C7.86328 2.9453 7.36328 2.7852 7.36328 2.8242C7.36328 2.833 7.17381 2.6182 7.06451 2.6738C7.07421 2.6865 7.13867 2.8799 7.13867 2.8867C7.02927 2.8867 6.21682 2.873 6.13092 2.9023C5.94142 3.1309 6.74219 3.374 6.37109 3.7676C6.49799 3.8115 6.61511 3.9971 6.61511 4.124C6.61511 4.2168 6.21679 4.0488 6.15039 3.8184C5.88869 3.8398 5.47658 3.8057 5.26758 3.9414C5.41208 3.7363 5.1172 3.8086 5.125 3.8086C5.125 3.5117 5.43947 3.0615 5.45697 2.9082C5.39057 2.9443 5.54302 2.7363 5.60742 2.7363C5.58592 2.7217 4.92378 2.4346 4.89258 2.6279C4.93948 2.6514 4.93949 2.8975 4.93359 2.8984C4.93749 2.8779 4.26162 3.1885 4.32422 3.1885C4.19922 3.0488 3.38868 2.9746 3.20898 3.1563C3.19138 3.0879 3.08588 2.9912 3.02728 2.9951C3.02728 2.8477 2.92188 2.8799 2.92188 2.7861C2.65428 2.8936 2.3096 3.2422 2.3418 3.2314C1.9688 3.3516 1.35942 4.5547 1.78912 4.2412C1.74712 4.2715 2.08197 3.9971 2.17188 4.0107C2.16408 4.0234 2.57232 4.3525 2.59772 4.3086C2.55862 4.5078 2.62698 4.8164 2.64258 4.7314C2.69728 5.0137 2.92761 5.7061 2.80261 5.7305C2.80261 6.0459 2.7793 6.1367 2.7207 6.5186C2.6016 6.835 2.84967 7.1006 2.92188 7.3662C2.83587 7.6279 3.75588 8.5547 3.71088 8.5586C3.79878 8.7197 4.40039 9.0977 4.43549 9.1426C4.43549 9.1064 4.1953 8.6895 4.1015 8.6133C4.084 8.6123 3.5938 8.3135 3.6543 7.96C3.9883 8.3271 4.95698 8.8545 5.05078 9.3691C5.57808 9.6377 6.08011 9.7295 6.62701 9.4941C6.94731 9.3545 7.49502 9.2363 7.78522 9.5078C8.18752 9.8828 8.85938 10.3281 9.77338 10.1699C9.56928 10.2051 9.54878 11.0508 9.55078 11.0488C9.55078 11.1836 9.76953 11.2188 9.79883 11.1943C9.82233 11.46 9.71283 11.46 9.82812 11.6523C9.82812 11.7197 10.9424 12.2764 10.876 12.3662C11.0996 12.4014 11.4775 12.3672 11.6748 12.4414C12.291 12.5537 12.2422 14.4395 12.1963 14.8721C12.2743 14.9287 12.2803 15.5146 12.2568 15.5879C12.2813 15.5557 12.8281 15.4951 12.8281 15.4951C12.7578 15.4961 12.9805 15.3311 12.7227 15.3965C12.7227 15.3486 13.2783 14.168 13.3115 14.0586C14.0283 14.04 14.0742 13.1768 14.1133 13.1113C14.2313 12.915 14.3359 11.3594 15.0127 11.0908C15.3262 10.9658 15 9.5537 15 9.5537V9.5537Z" fill="#354793"/>
</svg>
