<svg width="80" height="80" viewBox="0 0 80 80" fill="none" xmlns="http://www.w3.org/2000/svg">
<circle cx="40" cy="40" r="40" fill="url(#paint0_radial_519_20)"/>
<path d="M35 13.6667C45.109 13.6667 53.3333 21.891 53.3333 32C53.3333 42.109 45.109 50.3333 35 50.3333C24.891 50.3333 16.6667 42.109 16.6667 32C16.6667 21.891 24.891 13.6667 35 13.6667ZM35 10C22.8505 10 13 19.8505 13 32C13 44.1495 22.8505 54 35 54C47.1495 54 57 44.1495 57 32C57 19.8505 47.1495 10 35 10ZM43.0538 23.75L32.7083 34.354L27.861 29.7597L24.4583 33.166L32.7083 41.1667L46.4583 27.1545L43.0538 23.75Z" fill="#354793"/>
<defs>
<radialGradient id="paint0_radial_519_20" cx="0" cy="0" r="1" gradientUnits="userSpaceOnUse" gradientTransform="translate(40 40) rotate(90) scale(40)">
<stop stop-color="#FFE01B"/>
<stop offset="1" stop-color="#FFE01B" stop-opacity="0"/>
</radialGradient>
</defs>
</svg>
