<svg width="80" height="80" viewBox="0 0 80 80" fill="none" xmlns="http://www.w3.org/2000/svg">
<circle cx="40" cy="40" r="40" fill="#FFE01B"/>
<path d="M40 21.6667C50.109 21.6667 58.3333 29.891 58.3333 40C58.3333 50.109 50.109 58.3333 40 58.3333C29.891 58.3333 21.6667 50.109 21.6667 40C21.6667 29.891 29.891 21.6667 40 21.6667ZM40 18C27.8505 18 18 27.8505 18 40C18 52.1495 27.8505 62 40 62C52.1495 62 62 52.1495 62 40C62 27.8505 52.1495 18 40 18ZM48.0538 31.75L37.7083 42.354L32.861 37.7597L29.4583 41.166L37.7083 49.1667L51.4583 35.1545L48.0538 31.75V31.75Z" fill="#354793"/>
</svg>
