<svg width="80" height="80" viewBox="0 0 80 80" fill="none" xmlns="http://www.w3.org/2000/svg">
<circle cx="40" cy="40" r="40" fill="url(#paint0_radial_519_11)"/>
<rect x="27" y="29" width="26" height="3" rx="1.5" fill="url(#paint1_radial_519_11)"/>
<rect x="27" y="49" width="26" height="3" rx="1.5" fill="url(#paint2_radial_519_11)"/>
<rect x="27" y="39" width="26" height="3" rx="1.5" fill="url(#paint3_radial_519_11)"/>
<path d="M26.3281 33.5156C26.3281 44.1774 35.0023 52.8516 45.6641 52.8516C56.3258 52.8516 65 44.1774 65 33.5156C65 23.5397 57.4059 15.3057 47.6955 14.287C47.5411 14.2708 47.4219 14.1414 47.4219 13.9862V10.9641C47.4219 10.7984 47.5562 10.6641 47.7219 10.6641H50.6375C50.8032 10.6641 50.9375 10.5297 50.9375 10.3641V7.44844C50.9375 7.28275 50.8032 7.14844 50.6375 7.14844H40.6906C40.5249 7.14844 40.3906 7.28275 40.3906 7.44844V10.3641C40.3906 10.5297 40.5249 10.6641 40.6906 10.6641H43.6063C43.7719 10.6641 43.9062 10.7984 43.9062 10.9641V13.9862C43.9062 14.1414 43.787 14.2708 43.6326 14.287C33.9222 15.3057 26.3281 23.5397 26.3281 33.5156ZM61.4844 33.5156C61.4844 42.2388 54.3872 49.3359 45.6641 49.3359C36.9409 49.3359 29.8438 42.2388 29.8438 33.5156C29.8438 24.7925 36.9409 17.6953 45.6641 17.6953C54.3872 17.6953 61.4844 24.7925 61.4844 33.5156Z" fill="#354793"/>
<path d="M44.7062 21.2109C44.2644 21.2109 43.9062 21.5691 43.9062 22.0109V34.4734C43.9062 34.9153 44.2644 35.2734 44.7063 35.2734H57.1687C57.6106 35.2734 57.9688 34.9153 57.9688 34.4734V32.5578C57.9688 32.116 57.6106 31.7578 57.1687 31.7578H48.2219C47.78 31.7578 47.4219 31.3996 47.4219 30.9578V22.0109C47.4219 21.5691 47.0637 21.2109 46.6219 21.2109H44.7062Z" fill="#354793"/>
<path d="M5 32.7578C5 32.2055 5.44772 31.7578 6 31.7578H18.2969C18.8492 31.7578 19.2969 32.2055 19.2969 32.7578V34.2734C19.2969 34.8257 18.8492 35.2734 18.2969 35.2734H6C5.44771 35.2734 5 34.8257 5 34.2734V32.7578Z" fill="#354793"/>
<path d="M8.51562 22.2109C8.51562 21.6587 8.96334 21.2109 9.51562 21.2109H21.8125C22.3648 21.2109 22.8125 21.6587 22.8125 22.2109V23.7266C22.8125 24.2788 22.3648 24.7266 21.8125 24.7266H9.51562C8.96334 24.7266 8.51562 24.2788 8.51562 23.7266V22.2109Z" fill="#354793"/>
<path d="M8.51562 43.3047C8.51562 42.7524 8.96334 42.3047 9.51562 42.3047H21.8125C22.3648 42.3047 22.8125 42.7524 22.8125 43.3047V44.8203C22.8125 45.3726 22.3648 45.8203 21.8125 45.8203H9.51562C8.96334 45.8203 8.51562 45.3726 8.51562 44.8203V43.3047Z" fill="#354793"/>
<defs>
<radialGradient id="paint0_radial_519_11" cx="0" cy="0" r="1" gradientUnits="userSpaceOnUse" gradientTransform="translate(40 40) rotate(90) scale(40)">
<stop stop-color="#FFE01B"/>
<stop offset="1" stop-color="#FFE01B" stop-opacity="0"/>
</radialGradient>
<radialGradient id="paint1_radial_519_11" cx="0" cy="0" r="1" gradientUnits="userSpaceOnUse" gradientTransform="translate(40 30.5) rotate(90) scale(1.5 13)">
<stop stop-color="#FFE01B"/>
<stop offset="1" stop-color="#FFE01B" stop-opacity="0"/>
</radialGradient>
<radialGradient id="paint2_radial_519_11" cx="0" cy="0" r="1" gradientUnits="userSpaceOnUse" gradientTransform="translate(40 50.5) rotate(90) scale(1.5 13)">
<stop stop-color="#FFE01B"/>
<stop offset="1" stop-color="#FFE01B" stop-opacity="0"/>
</radialGradient>
<radialGradient id="paint3_radial_519_11" cx="0" cy="0" r="1" gradientUnits="userSpaceOnUse" gradientTransform="translate(40 40.5) rotate(90) scale(1.5 13)">
<stop stop-color="#FFE01B"/>
<stop offset="1" stop-color="#FFE01B" stop-opacity="0"/>
</radialGradient>
</defs>
</svg>
