<svg width="80" height="80" viewBox="0 0 80 80" fill="none" xmlns="http://www.w3.org/2000/svg">
<circle cx="40" cy="40" r="40" fill="#FFE01B"/>
<rect x="27" y="29" width="26" height="3" rx="1.5" fill="#FFE01B"/>
<rect x="27" y="49" width="26" height="3" rx="1.5" fill="#FFE01B"/>
<rect x="27" y="39" width="26" height="3" rx="1.5" fill="#FFE01B"/>
<path d="M31.3281 41.5156C31.3281 52.1774 40.0023 60.8516 50.6641 60.8516C61.3258 60.8516 70 52.1774 70 41.5156C70 31.5397 62.4059 23.3057 52.6955 22.287C52.5411 22.2708 52.4219 22.1414 52.4219 21.9862V18.9641C52.4219 18.7984 52.5562 18.6641 52.7219 18.6641H55.6375C55.8032 18.6641 55.9375 18.5297 55.9375 18.3641V15.4484C55.9375 15.2828 55.8032 15.1484 55.6375 15.1484H45.6906C45.5249 15.1484 45.3906 15.2828 45.3906 15.4484V18.3641C45.3906 18.5297 45.5249 18.6641 45.6906 18.6641H48.6062C48.7719 18.6641 48.9062 18.7984 48.9062 18.9641V21.9862C48.9062 22.1414 48.787 22.2708 48.6326 22.287C38.9222 23.3057 31.3281 31.5397 31.3281 41.5156ZM66.4844 41.5156C66.4844 50.2388 59.3872 57.3359 50.6641 57.3359C41.9409 57.3359 34.8438 50.2388 34.8438 41.5156C34.8438 32.7925 41.9409 25.6953 50.6641 25.6953C59.3872 25.6953 66.4844 32.7925 66.4844 41.5156Z" fill="#354793"/>
<path d="M49.7062 29.2109C49.2644 29.2109 48.9062 29.5691 48.9062 30.0109V42.4734C48.9062 42.9153 49.2644 43.2734 49.7063 43.2734H62.1688C62.6106 43.2734 62.9688 42.9153 62.9688 42.4734V40.5578C62.9688 40.116 62.6106 39.7578 62.1688 39.7578H53.2219C52.78 39.7578 52.4219 39.3996 52.4219 38.9578V30.0109C52.4219 29.5691 52.0637 29.2109 51.6219 29.2109H49.7062Z" fill="#354793"/>
<path d="M10 40.7578C10 40.2055 10.4477 39.7578 11 39.7578H23.2969C23.8492 39.7578 24.2969 40.2055 24.2969 40.7578V42.2734C24.2969 42.8257 23.8492 43.2734 23.2969 43.2734H11C10.4477 43.2734 10 42.8257 10 42.2734V40.7578Z" fill="#354793"/>
<path d="M13.5156 30.2109C13.5156 29.6587 13.9633 29.2109 14.5156 29.2109H26.8125C27.3648 29.2109 27.8125 29.6587 27.8125 30.2109V31.7266C27.8125 32.2788 27.3648 32.7266 26.8125 32.7266H14.5156C13.9633 32.7266 13.5156 32.2788 13.5156 31.7266V30.2109Z" fill="#354793"/>
<path d="M13.5156 51.3047C13.5156 50.7524 13.9633 50.3047 14.5156 50.3047H26.8125C27.3648 50.3047 27.8125 50.7524 27.8125 51.3047V52.8203C27.8125 53.3726 27.3648 53.8203 26.8125 53.8203H14.5156C13.9633 53.8203 13.5156 53.3726 13.5156 52.8203V51.3047Z" fill="#354793"/>
</svg>
