<svg fill="none" height="80" viewBox="0 0 80 80" width="80" xmlns="http://www.w3.org/2000/svg"><circle cx="40" cy="40" fill="#ffe01b" r="40"/><rect fill="#ffe01b" height="41" rx="8.5" stroke="#354793" stroke-width="3" width="37" x="21.5" y="17.5"/><g fill="#354793"><rect height="3" rx="1.5" width="26" x="27" y="26"/><rect height="3" rx="1.5" width="26" x="27" y="46"/><rect height="3" rx="1.5" width="26" x="27" y="36"/></g><circle cx="56" cy="55" fill="#ffe01b" r="11.5" stroke="#354793" stroke-width="3"/><path d="m55.39 56.14v2.25c0 .4971.4029.9.9.9s.9-.4029.9-.9v-2.25c0-.4142.3358-.75.75-.75h2.02c.4805 0 .87-.3895.87-.87s-.3895-.87-.87-.87h-2.02c-.4142 0-.75-.3358-.75-.75v-2.25c0-.4971-.4029-.9-.9-.9s-.9.4029-.9.9v2.25c0 .4142-.3358.75-.75.75h-2.02c-.4805 0-.87.3895-.87.87s.3895.87.87.87h2.02c.4142 0 .75.3358.75.75z" fill="#354793" stroke="#354793" stroke-width=".5"/></svg>