<?xml version="1.0" encoding="UTF-8"?>
<svg width="64px" height="64px" viewBox="0 0 64 64" version="1.1" xmlns="http://www.w3.org/2000/svg" xmlns:xlink="http://www.w3.org/1999/xlink">
    <!-- Generator: Sketch 52.2 (67145) - http://www.bohemiancoding.com/sketch -->
    <title>Group</title>
    <desc>Created with Sketch.</desc>
    <defs>
        <polygon id="path-1" points="0 0.0657518987 31.9617016 0.0657518987 31.9617016 40.4050633 0 40.4050633"></polygon>
    </defs>
    <g id="Page-1" stroke="none" stroke-width="1" fill="none" fill-rule="evenodd">
        <g id="Group">
            <circle id="Oval" fill="#E4F1FD" fill-rule="nonzero" cx="32" cy="32" r="32"></circle>
            <g id="Group-6" transform="translate(16.000000, 11.746835)">
                <path d="M17.3504,27.1255392 L16.9409016,27.3168304 L16.9409016,30.5575392 L15.0208,30.5575392 L15.0208,27.3168304 L14.6113016,27.1255392 C13.4785016,26.5966278 12.7464635,25.4500962 12.7464635,24.2044253 C12.7464635,22.4266025 14.1974349,20.9801215 15.9809016,20.9801215 C17.7643683,20.9801215 19.2154413,22.4266025 19.2154413,24.2044253 C19.2154413,25.4500962 18.4834032,26.5966278 17.3504,27.1255392 M15.9809016,19.5624 C13.413181,19.5624 11.3242413,21.6447291 11.3242413,24.2044253 C11.3242413,25.8427038 12.2034794,27.3618937 13.5985778,28.1925772 L13.5985778,31.9752608 L18.3631238,31.9752608 L18.3631238,28.1925772 C19.7583238,27.3618937 20.6376635,25.8427038 20.6376635,24.2044253 C20.6376635,21.6447291 18.5486222,19.5624 15.9809016,19.5624" id="Fill-1" fill="#234571"></path>
                <g id="Group-5" transform="translate(0.000000, 0.035544)">
                    <mask id="mask-2" fill="white">
                        <use xlink:href="#path-1"></use>
                    </mask>
                    <g id="Clip-4"></g>
                    <path d="M30.5394794,24.6230177 C30.4590222,32.5435241 23.9280762,38.9873722 15.9809016,38.9873722 C8.03393016,38.9873722 1.50288254,32.5435241 1.42222222,24.6301063 L1.42222222,15.3786633 L6.79161905,15.3786633 L25.1701841,15.3786633 L30.5394794,15.3786633 L30.5394794,24.6230177 Z M25.1701841,13.9609418 L25.1701841,9.13248608 C25.1454984,6.7051443 24.1787937,4.42716962 22.4479492,2.71800506 C20.7157841,1.00762532 18.4189968,0.0657518987 15.9808,0.0657518987 C13.5426032,0.0657518987 11.2458159,1.00762532 9.51385397,2.71810633 C7.78311111,4.42716962 6.81640635,6.7051443 6.79161905,9.13957468 L6.79161905,11.6691949 L8.21384127,11.6691949 L8.21384127,9.14666329 C8.25671111,4.92124557 11.7409524,1.48347342 15.9808,1.48347342 C20.2207492,1.48347342 23.7051937,4.92124557 23.7479619,9.13957468 L23.7479619,13.9609418 L15.7215492,13.9609418 L0,13.9609418 L0,24.6374987 C0.0430730159,28.858562 1.72444444,32.8201823 4.73427302,35.7923342 C7.74653968,38.7668152 11.7406476,40.4050937 15.9809016,40.4050937 C20.2212571,40.4050937 24.2153651,38.7668152 27.2275302,35.7923342 C30.2374603,32.8201823 31.9187302,28.858562 31.9617016,24.6301063 L31.9617016,13.9609418 L25.1701841,13.9609418 Z" id="Fill-3" fill="#234571" mask="url(#mask-2)"></path>
                </g>
            </g>
        </g>
    </g>
</svg>