<?xml version="1.0" encoding="UTF-8"?>
<svg width="56px" height="56px" viewBox="0 0 56 56" version="1.1" xmlns="http://www.w3.org/2000/svg" xmlns:xlink="http://www.w3.org/1999/xlink">
    <!-- Generator: Sketch 59.1 (86144) - https://sketch.com -->
    <title>Country Flags/Africa/flag_Democratic_Congo_CD</title>
    <desc>Created with Sketch.</desc>
    <defs>
        <rect id="path-1" x="0" y="0" width="56" height="40" rx="4"></rect>
    </defs>
    <g id="Country-Flags/Africa/flag_Democratic_Congo_CD" stroke="none" stroke-width="1" fill="none" fill-rule="evenodd">
        <g id="CD" transform="translate(0.000000, 8.000000)">
            <mask id="mask-2" fill="white">
                <use xlink:href="#path-1"></use>
            </mask>
            <use id="Mask" fill="#FFFFFF" xlink:href="#path-1"></use>
            <rect id="Mask-Copy" fill="#158AFF" mask="url(#mask-2)" x="0" y="0" width="56" height="40" rx="4"></rect>
            <polygon id="Rectangle-69-Copy" fill="#FDD216" mask="url(#mask-2)" transform="translate(26.634099, 20.835347) rotate(153.000000) translate(-26.634099, -20.835347) " points="-12.0325678 12.8353467 65.3007656 12.8353467 65.3007656 28.8353467 -12.0325678 28.8353467"></polygon>
            <polygon id="Rectangle-69" fill="#CE1120" mask="url(#mask-2)" transform="translate(27.369834, 20.349859) rotate(153.000000) translate(-27.369834, -20.349859) " points="-11.2968331 15.0165259 66.0365002 15.0165259 66.0365002 25.6831926 -11.2968331 25.6831926"></polygon>
            <polygon id="Star-8" fill="#FDD216" mask="url(#mask-2)" points="9.33333333 11.9333334 5.41476498 14.72678 6.86058629 10.1367776 2.99295656 7.27322004 7.80509162 7.22988906 9.33333333 2.66666667 10.8615751 7.22988906 15.6737101 7.27322004 11.8060804 10.1367776 13.2519017 14.72678"></polygon>
        </g>
    </g>
</svg>